# Blender 4.0.2
# www.blender.org
mtllib Spear 02.mtl
o Spear
v 0.071392 -0.096271 0.310606
v 0.071392 0.096271 0.310606
v 0.142782 0.000000 0.310606
v -0.000000 -0.122366 0.310606
v -0.071390 -0.096271 0.310606
v -0.142781 0.000000 0.310606
v -0.000000 0.122366 0.310606
v -0.071390 0.096271 0.310606
v 0.071392 -0.096271 0.165759
v 0.071392 0.096271 0.165759
v 0.142782 0.000000 0.165759
v -0.000000 -0.122366 0.165759
v -0.071390 -0.096271 0.165759
v -0.142781 0.000000 0.165759
v -0.000000 0.122366 0.165759
v -0.071390 0.096271 0.165759
v 0.107456 -0.056169 -0.002234
v 0.102736 -0.051029 0.180281
v 0.000263 -0.051029 0.180281
v -0.004457 -0.056169 0.011504
v 0.107456 0.056583 -0.002234
v 0.102736 0.051443 0.180281
v 0.000263 0.051443 0.180281
v -0.004457 0.056583 0.011504
v -0.039623 0.065116 -0.180130
v 0.074327 0.065116 -0.242325
v -0.039623 -0.064702 -0.180130
v 0.074327 -0.064702 -0.242325
v 0.019662 -0.077267 -0.394184
v -0.104475 -0.077267 -0.301451
v 0.019662 0.077682 -0.394184
v -0.104475 0.077682 -0.301451
v -0.204544 0.103260 -0.398429
v -0.063203 0.103260 -0.548436
v -0.204544 -0.102845 -0.398429
v -0.063203 -0.102845 -0.548436
v -0.074104 -0.086949 -0.536866
v -0.193642 -0.086949 -0.409998
v -0.074104 0.087363 -0.536866
v -0.193642 0.087363 -0.409998
v -0.228938 0.087363 -0.441715
v -0.125272 0.087363 -0.581851
v -0.228938 -0.086949 -0.441715
v -0.125272 -0.086949 -0.581851
v -0.120467 -0.095029 -0.588347
v -0.233744 -0.095029 -0.435219
v -0.120467 0.095444 -0.588347
v -0.233744 0.095444 -0.435219
v -0.253268 0.095444 -0.449862
v -0.139991 0.095444 -0.602990
v -0.253268 -0.095029 -0.449862
v -0.139991 -0.095029 -0.602990
v -0.143670 -0.088843 -0.598017
v -0.249589 -0.088843 -0.454835
v -0.143670 0.089257 -0.598017
v -0.249589 0.089257 -0.454835
v -0.494660 0.070701 -0.690493
v -0.252822 0.070701 -0.701144
v -0.494660 -0.070287 -0.690494
v -0.252822 -0.070287 -0.701144
v -0.446281 -0.070287 -0.829479
v -0.603886 -0.070287 -0.794278
v -0.446281 0.070701 -0.829479
v -0.603886 0.070701 -0.794278
v -0.630649 0.070701 -0.869399
v -0.630649 -0.070287 -0.869399
v -0.534181 -0.070287 -0.919291
v -0.618080 -0.070287 -0.946083
v -0.618080 0.070701 -0.946083
v -0.579836 0.070701 -1.010132
v -0.534181 0.070701 -0.919291
v -0.579836 -0.070287 -1.010132
v -0.545421 -0.070287 -1.038231
v -0.545421 0.070701 -1.038231
v -0.479565 0.070701 -1.057744
v -0.480064 0.070701 -0.972340
v -0.479565 -0.070287 -1.057745
v -0.480064 -0.070287 -0.972340
v -0.429056 -0.070287 -0.956557
v -0.439471 -0.070287 -1.035292
v -0.429056 0.070701 -0.956557
v -0.439471 0.070701 -1.035292
v -0.411405 0.070701 -0.993594
v -0.411405 -0.070287 -0.993594
v -0.372816 -0.070287 -0.886322
v -0.381735 -0.070287 -1.003217
v -0.372816 0.070701 -0.886322
v -0.381735 0.070701 -1.003217
v -0.336028 0.070701 -0.998405
v -0.336028 -0.070287 -0.998405
v -0.299142 -0.070287 -0.987179
v -0.299142 0.070701 -0.987179
v -0.260651 0.070701 -0.943878
v -0.292628 0.070701 -0.876299
v -0.260651 -0.070287 -0.943878
v -0.292628 -0.070287 -0.876299
v -0.240986 -0.070287 -0.854071
v -0.221359 -0.070287 -0.923831
v -0.240985 0.070701 -0.854071
v -0.221359 0.070701 -0.923831
v -0.192833 0.070701 -0.921326
v -0.202758 0.070701 -0.848535
v -0.192833 -0.070287 -0.921326
v -0.202758 -0.070287 -0.848535
v -0.176296 -0.070287 -0.868582
v -0.165569 -0.070287 -0.914109
v -0.176296 0.070701 -0.868582
v -0.165569 0.070701 -0.914109
v -0.158393 0.070701 -0.902540
v -0.161944 0.070701 -0.884123
v -0.158393 -0.070287 -0.902541
v -0.161944 -0.070287 -0.884124
v -0.432437 -0.070287 -0.872504
v -0.432437 0.070701 -0.872504
v -0.242488 0.070701 -0.777965
v -0.242488 -0.070287 -0.777965
v -0.242488 0.070701 -0.777965
v -0.242488 -0.070287 -0.777965
v -0.242488 -0.070287 -0.777965
v -0.242488 0.070701 -0.777965
v -0.242488 0.070701 -0.777965
v -0.242488 -0.070287 -0.777965
v -0.242488 0.070701 -0.777965
v -0.242488 -0.070287 -0.777965
v -0.242488 -0.070287 -0.777965
v -0.242488 0.070701 -0.777965
v -0.254558 0.070701 -0.755196
v -0.254558 -0.070287 -0.755196
v -0.232774 0.070701 -0.816809
v -0.232774 -0.070287 -0.816809
v -0.240322 -0.070287 -0.743596
v -0.240322 0.070701 -0.743596
v -0.230809 -0.070287 -0.700264
v -0.230809 0.070701 -0.700264
v -0.218648 0.070701 -0.718718
v -0.218648 -0.070287 -0.718718
v -0.225559 0.070701 -0.739378
v -0.225559 -0.070287 -0.739378
v -0.512145 -0.070287 -1.081471
v -0.512145 0.070701 -1.081471
v -0.547948 0.070701 -1.073557
v -0.547948 -0.070287 -1.073557
v -0.542676 -0.070287 -1.101501
v -0.542676 0.070701 -1.101501
v -0.529017 0.070701 -1.097288
v -0.529017 -0.070287 -1.097288
v -0.149898 0.090471 -0.353629
v -0.149898 -0.090056 -0.353629
v 0.148629 0.072501 -0.353629
v 0.148629 -0.072087 -0.353628
v 0.527748 0.070701 -1.097288
v 0.527748 -0.070287 -1.097288
v 0.541406 -0.070287 -1.101501
v 0.541406 0.070701 -1.101501
v 0.546679 0.070701 -1.073557
v 0.546679 -0.070287 -1.073557
v 0.510876 -0.070287 -1.081471
v 0.510876 0.070701 -1.081471
v 0.224290 0.070701 -0.739378
v 0.224290 -0.070287 -0.739378
v 0.217379 0.070701 -0.718718
v 0.217379 -0.070287 -0.718718
v 0.229539 -0.070287 -0.700264
v 0.229539 0.070701 -0.700264
v 0.239053 -0.070287 -0.743596
v 0.239053 0.070701 -0.743596
v 0.231505 0.070701 -0.816809
v 0.231504 -0.070287 -0.816809
v 0.253289 0.070701 -0.755196
v 0.253289 -0.070287 -0.755196
v 0.241219 -0.070287 -0.777965
v 0.241219 0.070701 -0.777965
v 0.241219 0.070701 -0.777965
v 0.241219 -0.070287 -0.777965
v 0.241219 0.070701 -0.777965
v 0.241219 -0.070287 -0.777965
v 0.241219 -0.070287 -0.777965
v 0.241219 0.070701 -0.777965
v 0.241219 0.070701 -0.777965
v 0.241219 -0.070287 -0.777965
v 0.241219 0.070701 -0.777965
v 0.241219 -0.070287 -0.777965
v 0.431168 -0.070287 -0.872504
v 0.431168 0.070701 -0.872504
v 0.160675 0.070701 -0.884124
v 0.157124 0.070701 -0.902541
v 0.160674 -0.070287 -0.884123
v 0.157124 -0.070287 -0.902540
v 0.164300 -0.070287 -0.914109
v 0.175027 -0.070287 -0.868582
v 0.164300 0.070701 -0.914109
v 0.175027 0.070701 -0.868582
v 0.201489 0.070701 -0.848535
v 0.191564 0.070701 -0.921326
v 0.201489 -0.070287 -0.848535
v 0.191564 -0.070287 -0.921326
v 0.220090 -0.070287 -0.923831
v 0.239716 -0.070287 -0.854071
v 0.220090 0.070701 -0.923831
v 0.239716 0.070701 -0.854071
v 0.291359 0.070701 -0.876299
v 0.259382 0.070701 -0.943878
v 0.291359 -0.070287 -0.876299
v 0.259382 -0.070287 -0.943878
v 0.297872 -0.070287 -0.987179
v 0.297872 0.070701 -0.987179
v 0.334759 0.070701 -0.998405
v 0.334759 -0.070287 -0.998405
v 0.380466 -0.070287 -1.003217
v 0.371547 -0.070287 -0.886322
v 0.380466 0.070701 -1.003217
v 0.371547 0.070701 -0.886322
v 0.410136 0.070701 -0.993594
v 0.410136 -0.070287 -0.993594
v 0.438201 -0.070287 -1.035292
v 0.427787 -0.070287 -0.956557
v 0.438201 0.070701 -1.035292
v 0.427787 0.070701 -0.956557
v 0.478795 0.070701 -0.972340
v 0.478295 0.070701 -1.057745
v 0.478795 -0.070287 -0.972340
v 0.478295 -0.070287 -1.057744
v 0.544152 -0.070287 -1.038231
v 0.544152 0.070701 -1.038231
v 0.578567 0.070701 -1.010132
v 0.532912 -0.070287 -0.919291
v 0.578567 -0.070287 -1.010132
v 0.616811 -0.070287 -0.946083
v 0.616811 0.070701 -0.946083
v 0.532912 0.070701 -0.919291
v 0.629380 0.070701 -0.869399
v 0.629380 -0.070287 -0.869399
v 0.602616 -0.070287 -0.794278
v 0.445011 -0.070287 -0.829479
v 0.602616 0.070701 -0.794278
v 0.445011 0.070701 -0.829479
v 0.251553 0.070701 -0.701144
v 0.493391 0.070701 -0.690494
v 0.251553 -0.070287 -0.701144
v 0.493391 -0.070287 -0.690493
v 0.248319 -0.088843 -0.454835
v 0.142400 -0.088843 -0.598017
v 0.248319 0.089257 -0.454835
v 0.142401 0.089257 -0.598017
v 0.138721 0.095443 -0.602990
v 0.251999 0.095443 -0.449862
v 0.138721 -0.095030 -0.602990
v 0.251999 -0.095030 -0.449862
v 0.232475 -0.095030 -0.435219
v 0.119197 -0.095030 -0.588347
v 0.232475 0.095443 -0.435219
v 0.119197 0.095443 -0.588347
v 0.124003 0.087363 -0.581851
v 0.227669 0.087363 -0.441715
v 0.124003 -0.086949 -0.581851
v 0.227669 -0.086949 -0.441715
v 0.192373 -0.086949 -0.409998
v 0.072835 -0.086949 -0.536866
v 0.192373 0.087363 -0.409998
v 0.072835 0.087363 -0.536866
v 0.061934 0.103259 -0.548436
v 0.203275 0.103259 -0.398429
v 0.061934 -0.102846 -0.548436
v 0.203274 -0.102846 -0.398428
v 0.103205 -0.061844 -0.301451
v -0.020931 -0.061844 -0.394184
v 0.103206 0.062258 -0.301451
v -0.020931 0.062258 -0.394184
v -0.075596 0.052194 -0.242325
v 0.038354 0.052194 -0.180130
v -0.075596 -0.051780 -0.242324
v 0.038354 -0.051780 -0.180130
v 0.003188 -0.044946 0.011504
v -0.001532 -0.040829 0.180281
v -0.104005 -0.040829 0.180281
v -0.108725 -0.044946 -0.002234
v 0.003188 0.045360 0.011504
v -0.001532 0.041243 0.180281
v -0.104005 0.041243 0.180281
v -0.108725 0.045360 -0.002234
v 0.000001 0.000000 0.165759
v 0.090673 -0.122272 0.268843
v 0.090673 -0.122272 0.207521
v 0.181344 0.000000 0.268843
v 0.181344 0.000000 0.207521
v 0.090673 0.122271 0.268843
v 0.090673 0.122271 0.207521
v -0.090672 -0.122272 0.268843
v -0.090672 -0.122272 0.207521
v -0.000000 -0.155415 0.268843
v -0.000000 -0.155415 0.207521
v -0.181344 0.000000 0.268843
v -0.181344 0.000000 0.207521
v -0.000000 0.155415 0.268843
v -0.000000 0.155415 0.207521
v -0.090672 0.122271 0.268843
v -0.090672 0.122271 0.207521
v 0.071392 -0.096271 1.338356
v 0.142782 0.000000 1.338356
v -0.000000 -0.122366 1.338356
v 0.071392 0.096271 1.338356
v -0.000000 0.122366 1.338356
v -0.071390 -0.096271 1.338356
v -0.142781 0.000000 1.338356
v -0.071390 0.096271 1.338356
v 0.071392 -0.096271 1.438356
v 0.142782 0.000000 1.438356
v -0.000000 -0.122366 1.438356
v -0.000000 0.122366 1.438356
v 0.071392 0.096271 1.438356
v -0.142781 0.000000 1.438356
v -0.071390 -0.096271 1.438356
v -0.071390 0.096271 1.438356
v 0.071392 -0.096271 2.438356
v 0.142782 0.000000 2.438356
v -0.000000 -0.122366 2.438356
v -0.000000 0.122366 2.438356
v 0.071392 0.096271 2.438356
v -0.142781 0.000000 2.438356
v -0.071390 -0.096271 2.438356
v -0.071390 0.096271 2.438356
v 0.157060 0.000000 1.370023
v 0.157060 0.000000 1.406690
v 0.078531 -0.105898 1.370023
v 0.078531 -0.105898 1.406690
v -0.000000 -0.134603 1.370023
v -0.000000 -0.134603 1.406690
v -0.000000 0.134603 1.370023
v -0.000000 0.134603 1.406690
v 0.078531 0.105898 1.370023
v 0.078531 0.105898 1.406690
v -0.078529 -0.105898 1.370023
v -0.078529 -0.105898 1.406690
v -0.157059 0.000000 1.370023
v -0.157059 0.000000 1.406690
v -0.078529 0.105898 1.370023
v -0.078529 0.105898 1.406690
v 0.061735 -0.083249 2.552157
v 0.123469 0.000000 2.552157
v -0.000000 -0.105815 2.552157
v -0.000000 0.105814 2.552157
v 0.061735 0.083249 2.552157
v -0.123468 0.000000 2.552157
v -0.061734 -0.083249 2.552157
v -0.061734 0.083249 2.552157
v 0.171338 0.000000 2.518017
v 0.171338 0.000000 2.472496
v 0.085670 -0.115525 2.518017
v 0.085670 -0.115525 2.472496
v -0.000000 -0.146840 2.518017
v -0.000000 -0.146840 2.472496
v -0.000000 0.146840 2.518017
v -0.000000 0.146840 2.472496
v 0.085670 0.115525 2.518017
v 0.085670 0.115525 2.472496
v -0.085669 -0.115525 2.518017
v -0.085669 -0.115525 2.472496
v -0.171338 0.000000 2.518017
v -0.171338 0.000000 2.472496
v -0.085669 0.115525 2.518017
v -0.085669 0.115525 2.472496
v 0.061735 -0.083248 6.484899
v 0.123469 0.000001 6.484899
v -0.000000 -0.105813 6.484899
v -0.000000 0.105815 6.484899
v 0.061735 0.083250 6.484899
v -0.061734 -0.083248 6.484899
v -0.123468 0.000001 6.484899
v -0.061734 0.083250 6.484899
v 0.123469 0.000001 6.584898
v 0.061735 -0.083248 6.584898
v -0.000000 -0.105813 6.584898
v -0.000000 0.105815 6.584898
v 0.061735 0.083250 6.584898
v -0.123468 0.000001 6.584898
v -0.061734 -0.083248 6.584898
v -0.061734 0.083250 6.584898
v 0.123469 0.000001 10.358825
v 0.061735 -0.083248 10.358825
v -0.000000 -0.105813 10.358825
v 0.061735 0.083250 10.358825
v -0.000000 0.105816 10.358825
v -0.123468 0.000001 10.358825
v -0.061734 -0.083248 10.358825
v -0.061734 0.083250 10.358825
v 0.209897 0.000001 10.358825
v 0.104949 -0.141522 10.358825
v -0.000000 -0.179883 10.358825
v 0.104949 0.141524 10.358825
v -0.000000 0.179886 10.358825
v -0.209896 0.000001 10.358825
v -0.104948 -0.141522 10.358825
v -0.104948 0.141524 10.358825
v 0.073464 -0.099065 10.795037
v 0.146928 0.000001 10.795037
v -0.000000 -0.125918 10.795037
v -0.000000 0.125920 10.795037
v 0.073464 0.099067 10.795037
v -0.146927 0.000001 10.795037
v -0.073463 -0.099065 10.795037
v -0.073463 0.099067 10.795037
v 0.167917 0.000001 10.649633
v 0.188907 0.000001 10.504229
v 0.094454 -0.127370 10.504229
v 0.083959 -0.113217 10.649633
v -0.000000 -0.161895 10.504229
v -0.000000 -0.143906 10.649633
v -0.000000 0.143909 10.649633
v -0.000000 0.161897 10.504229
v 0.094454 0.127372 10.504229
v 0.083959 0.113220 10.649633
v -0.083958 -0.113217 10.649633
v -0.094453 -0.127370 10.504229
v -0.167916 0.000001 10.649633
v -0.188906 0.000001 10.504229
v -0.083958 0.113220 10.649633
v -0.094453 0.127372 10.504229
v -0.085008 0.114635 10.504229
v -0.075562 0.101898 10.649633
v -0.170015 0.000001 10.504229
v -0.151125 0.000001 10.649633
v -0.085008 -0.114632 10.504229
v -0.075562 -0.101895 10.649633
v 0.075563 0.101898 10.649633
v 0.085009 0.114635 10.504229
v -0.000000 0.145708 10.504229
v -0.000000 0.129518 10.649633
v -0.000000 -0.129516 10.649633
v -0.000000 -0.145705 10.504229
v 0.075563 -0.101895 10.649633
v 0.085009 -0.114632 10.504229
v 0.170016 0.000001 10.504229
v 0.151126 0.000001 10.649633
v 0.000001 0.000001 10.895038
v -0.074081 0.099899 6.571310
v -0.074081 -0.099898 6.571310
v -0.148162 0.000001 6.571310
v 0.074082 0.099899 6.571310
v -0.000000 0.126978 6.571310
v -0.000000 -0.126976 6.571310
v 0.074082 -0.099898 6.571310
v 0.148162 0.000001 6.571310
v -0.074081 0.099899 6.498487
v -0.148162 0.000001 6.498487
v -0.074081 -0.099898 6.498487
v 0.074082 0.099899 6.498487
v -0.000000 0.126978 6.498487
v -0.000000 -0.126976 6.498487
v 0.148162 0.000001 6.498487
v 0.074082 -0.099898 6.498487
v 0.116613 -0.000000 -2.786927
v 0.171539 -0.000000 -2.574276
v -0.000000 0.050283 -2.786927
v -0.000000 0.059851 -2.574276
v -0.171538 -0.000000 -2.574276
v -0.116613 -0.000000 -2.786927
v -0.036470 -0.000000 -3.075060
v -0.000000 0.023661 -3.075060
v 0.036471 -0.000000 -3.075060
v 0.015650 -0.000000 -3.143457
v -0.000000 0.010153 -3.143457
v -0.015650 -0.000000 -3.143457
v -0.000000 -0.000000 -3.167727
v -0.192512 -0.000000 -2.452696
v 0.192513 -0.000000 -2.452696
v -0.096256 0.062447 -2.452696
v 0.096257 0.062447 -2.452696
v -0.207393 -0.000000 -2.325480
v -0.147918 0.062447 -2.325480
v 0.147918 0.062447 -2.325480
v 0.207394 -0.000000 -2.325480
v -0.207393 -0.000000 -2.189132
v -0.127329 0.062447 -2.189132
v 0.127329 0.062447 -2.189132
v 0.207394 -0.000000 -2.189132
v -0.231733 -0.000000 -2.083654
v -0.161394 0.062447 -2.083654
v 0.161394 0.062447 -2.083654
v 0.231733 -0.000000 -2.083654
v -0.254000 -0.000000 -1.989753
v -0.182308 0.062447 -1.989753
v 0.182309 0.062447 -1.989753
v 0.254001 -0.000000 -1.989753
v -0.266784 -0.000000 -1.871413
v -0.191484 0.062447 -1.871413
v 0.191485 0.062447 -1.871413
v 0.266784 -0.000000 -1.871413
v -0.347765 -0.000000 -1.740339
v -0.249608 0.062447 -1.740339
v 0.249609 0.062447 -1.740339
v 0.347765 -0.000000 -1.740339
v -0.385481 -0.000000 -1.591659
v -0.276679 0.062447 -1.591659
v 0.276680 0.062447 -1.591659
v 0.385482 -0.000000 -1.591659
v -0.380078 -0.000000 -1.448848
v -0.272801 0.062447 -1.448848
v 0.272802 0.062447 -1.448848
v 0.380079 -0.000000 -1.448848
v -0.310872 -0.000000 -1.278648
v -0.223128 0.062448 -1.278648
v 0.223129 0.062448 -1.278648
v 0.310873 -0.000000 -1.278648
v -0.273960 -0.000000 -1.135837
v -0.196635 0.062448 -1.135837
v 0.196635 0.062448 -1.135837
v 0.273961 -0.000000 -1.135837
v -0.226314 -0.000000 -0.975419
v -0.162437 0.062448 -0.975419
v 0.162438 0.062448 -0.975419
v 0.226315 -0.000000 -0.975419
v -0.147706 -0.000000 -0.873690
v -0.106016 0.062448 -0.873690
v 0.106017 0.062448 -0.873690
v 0.147707 -0.000000 -0.873690
v -0.104621 -0.000000 -0.777831
v -0.000000 0.075300 -0.777831
v 0.104622 -0.000000 -0.777831
v -0.052310 0.059788 -0.777831
v 0.052311 0.059788 -0.777831
v -0.000000 0.075994 -0.742018
v -0.044336 0.059788 -0.742018
v -0.088673 -0.000000 -0.742018
v 0.088674 -0.000000 -0.742018
v 0.044337 0.059788 -0.742018
v -0.000000 0.081323 -1.448848
v -0.000000 0.095272 -1.278648
v -0.000000 0.095272 -1.135837
v -0.000000 0.095272 -0.975419
v -0.000000 0.095272 -0.873690
v -0.044336 0.059788 -0.350754
v -0.000000 0.075994 -0.350754
v -0.088673 -0.000000 -0.350754
v 0.088674 -0.000000 -0.350754
v 0.044337 0.059788 -0.350754
v -0.000000 -0.050283 -2.786927
v -0.000000 -0.059851 -2.574276
v -0.000000 -0.023661 -3.075060
v -0.000000 -0.010153 -3.143457
v -0.096256 -0.062447 -2.452696
v 0.096257 -0.062447 -2.452696
v -0.147918 -0.062447 -2.325480
v 0.147918 -0.062447 -2.325480
v -0.127329 -0.062447 -2.189132
v 0.127329 -0.062447 -2.189132
v -0.161394 -0.062447 -2.083654
v 0.161394 -0.062447 -2.083654
v -0.182308 -0.062447 -1.989753
v 0.182309 -0.062447 -1.989753
v -0.191484 -0.062447 -1.871413
v 0.191485 -0.062447 -1.871413
v -0.249608 -0.062447 -1.740339
v 0.249609 -0.062447 -1.740339
v -0.276679 -0.062447 -1.591659
v 0.276680 -0.062447 -1.591659
v -0.272801 -0.062447 -1.448848
v 0.272802 -0.062447 -1.448848
v -0.223128 -0.062448 -1.278648
v 0.223129 -0.062448 -1.278648
v -0.196635 -0.062448 -1.135837
v 0.196635 -0.062448 -1.135837
v -0.162437 -0.062448 -0.975419
v 0.162438 -0.062448 -0.975419
v -0.106016 -0.062448 -0.873690
v 0.106017 -0.062448 -0.873690
v -0.000000 -0.075300 -0.777831
v -0.052310 -0.059788 -0.777831
v 0.052311 -0.059788 -0.777831
v -0.000000 -0.075994 -0.742018
v -0.044336 -0.059788 -0.742018
v 0.044337 -0.059788 -0.742018
v -0.000000 -0.081323 -1.448848
v -0.000000 -0.095272 -1.278648
v -0.000000 -0.095272 -1.135837
v -0.000000 -0.095272 -0.975419
v -0.000000 -0.095272 -0.873690
v -0.044336 -0.059788 -0.350754
v -0.000000 -0.075994 -0.350754
v 0.044337 -0.059788 -0.350754
vn 0.7273 -0.6861 -0.0184
vn 0.7078 -0.7054 0.0389
vn -0.7064 -0.7066 0.0405
vn -0.6826 -0.7242 0.0977
vn 0.7273 0.6861 -0.0184
vn -0.6826 0.7242 0.0977
vn -0.7064 0.7066 0.0405
vn 0.7078 0.7054 0.0389
vn -0.6172 0.7402 0.2668
vn -0.6172 -0.7402 0.2668
vn 0.7276 -0.6720 -0.1378
vn 0.7276 0.6720 -0.1378
vn -0.5096 -0.7168 0.4759
vn 0.7086 -0.6671 -0.2300
vn 0.7086 0.6671 -0.2300
vn -0.5096 0.7168 0.4759
vn 0.1217 -0.6046 -0.7872
vn 0.1217 0.6046 -0.7872
vn -0.7755 -0.6266 0.0775
vn -0.8642 -0.3076 -0.3981
vn -0.4559 -0.2927 -0.8405
vn -0.7755 0.6266 0.0775
vn -0.4559 0.2927 -0.8405
vn -0.8642 0.3076 -0.3981
vn 0.5366 0.3265 0.7781
vn 0.5366 -0.3265 0.7781
vn 0.9098 -0.2803 0.3060
vn 0.9098 0.2803 0.3060
vn 0.1182 -0.5770 0.8081
vn 0.8077 -0.5777 -0.1181
vn 0.8077 0.5777 -0.1181
vn 0.1182 0.5770 0.8081
vn -0.8077 0.5777 0.1181
vn -0.8077 -0.5777 0.1181
vn -0.1182 -0.5770 -0.8081
vn -0.1182 0.5770 -0.8081
vn -0.9036 -0.2657 -0.3360
vn -0.5504 -0.3253 -0.7689
vn -0.5504 0.3253 -0.7689
vn -0.9036 0.2657 -0.3360
vn -0.5004 0.7043 0.5036
vn -0.5004 -0.7043 0.5036
vn 0.1812 -0.9830 0.0291
vn 0.1812 0.9830 0.0291
vn -0.6310 -0.6584 0.4103
vn -0.0000 -1.0000 -0.0000
vn -0.0000 1.0000 -0.0000
vn -0.6310 0.6584 0.4103
vn -0.7526 0.6550 0.0678
vn -0.7526 -0.6550 0.0678
vn -0.6995 -0.6674 -0.2556
vn -0.6995 0.6674 -0.2556
vn -0.5618 0.6702 -0.4850
vn -0.5618 -0.6702 -0.4850
vn -0.5164 -0.8268 -0.2228
vn -0.5164 0.8268 -0.2228
vn 0.3741 0.7207 -0.5836
vn 0.3741 -0.7207 -0.5836
vn 0.5099 -0.6585 -0.5535
vn 0.5099 0.6585 -0.5535
vn 0.1607 0.8703 -0.4655
vn 0.1607 -0.8703 -0.4655
vn -0.0780 -0.6632 -0.7444
vn -0.0780 0.6632 -0.7444
vn 0.1446 0.6863 -0.7128
vn 0.1446 -0.6863 -0.7128
vn 0.4095 -0.6509 -0.6392
vn 0.4095 0.6509 -0.6392
vn 0.4036 -0.7512 -0.5222
vn 0.4036 0.7512 -0.5222
vn 0.2433 0.9432 0.2262
vn 0.1817 0.7527 -0.6328
vn 0.1817 -0.7527 -0.6328
vn 0.2433 -0.9432 0.2262
vn 0.1250 -0.6884 -0.7145
vn 0.1939 -0.6297 0.7522
vn 0.1939 0.6297 0.7522
vn 0.1250 0.6884 -0.7145
vn 0.4877 0.6878 0.5377
vn 0.4607 0.6326 -0.6225
vn 0.4607 -0.6326 -0.6225
vn 0.4877 -0.6878 0.5377
vn 0.7609 -0.6336 -0.1403
vn 0.6780 -0.6503 0.3427
vn 0.6780 0.6503 0.3427
vn 0.7609 0.6336 -0.1403
vn -0.0000 0.7071 0.7071
vn -0.0000 -0.4367 0.8996
vn -0.0000 -0.7071 0.7071
vn -0.0000 0.4367 0.8996
vn -0.0000 0.5243 0.8515
vn -0.0000 -0.5243 0.8515
vn 0.3370 -0.0000 0.9415
vn 0.3970 -0.0000 0.9178
vn 0.4642 0.8807 -0.0940
vn 0.4642 -0.8807 -0.0940
vn 0.7520 0.6590 0.0107
vn 0.7520 -0.6590 0.0107
vn 0.3032 0.7554 -0.5810
vn 0.3032 -0.7554 -0.5810
vn 0.3613 -0.6114 0.7041
vn 0.3613 0.6114 0.7041
vn 0.7775 -0.6206 0.1016
vn 0.7775 0.6206 0.1016
vn 0.5446 0.6157 -0.5694
vn 0.5446 -0.6157 -0.5694
vn -0.7327 -0.6793 -0.0422
vn 0.4416 -0.7213 -0.5336
vn 0.4416 0.7213 -0.5336
vn -0.7327 0.6793 -0.0422
vn -0.4237 0.5717 -0.7027
vn -0.4237 -0.5717 -0.7027
vn 0.3774 0.6598 -0.6498
vn 0.3774 -0.6598 -0.6498
vn -0.3879 0.7115 0.5860
vn -0.3879 -0.7115 0.5860
vn 0.3693 0.6590 0.6552
vn 0.7167 0.6877 0.1162
vn -0.1272 0.6404 -0.7575
vn 0.5193 0.7212 0.4585
vn -0.7204 0.6583 -0.2184
vn 0.3693 -0.6590 0.6552
vn 0.5193 -0.7212 0.4585
vn -0.7204 -0.6583 -0.2184
vn 0.7167 -0.6877 0.1162
vn -0.1272 -0.6404 -0.7575
vn 0.4236 0.5717 -0.7027
vn 0.4236 -0.5717 -0.7027
vn -0.3774 -0.6598 -0.6498
vn -0.3774 0.6598 -0.6498
vn -0.4416 0.7213 -0.5336
vn 0.7327 0.6793 -0.0422
vn -0.4416 -0.7213 -0.5336
vn 0.7327 -0.6793 -0.0422
vn 0.5164 0.8268 -0.2228
vn 0.5164 -0.8268 -0.2228
vn -0.3741 -0.7207 -0.5836
vn -0.3741 0.7207 -0.5836
vn -0.7775 0.6206 0.1016
vn -0.5446 0.6157 -0.5694
vn -0.5446 -0.6157 -0.5694
vn -0.7775 -0.6206 0.1016
vn -0.3032 0.7554 -0.5810
vn -0.3032 -0.7554 -0.5810
vn -0.3613 0.6114 0.7041
vn -0.3613 -0.6114 0.7041
vn -0.1812 -0.9830 0.0291
vn -0.1812 0.9830 0.0291
vn -0.4642 -0.8807 -0.0940
vn -0.4642 0.8807 -0.0940
vn -0.7520 -0.6590 0.0107
vn -0.2433 -0.9432 0.2262
vn -0.3970 -0.0000 0.9178
vn -0.7520 0.6590 0.0107
vn -0.2433 0.9432 0.2262
vn -0.3370 -0.0000 0.9415
vn -0.6780 -0.6503 0.3427
vn -0.6780 0.6503 0.3427
vn -0.7609 0.6336 -0.1403
vn -0.7608 -0.6336 -0.1403
vn -0.4607 -0.6326 -0.6225
vn -0.4877 -0.6878 0.5377
vn -0.4607 0.6326 -0.6225
vn -0.4877 0.6878 0.5377
vn -0.1939 0.6297 0.7522
vn -0.1250 0.6884 -0.7145
vn -0.1939 -0.6297 0.7522
vn -0.1250 -0.6884 -0.7145
vn -0.1817 -0.7527 -0.6328
vn -0.1817 0.7527 -0.6328
vn -0.4036 0.7512 -0.5222
vn -0.4036 -0.7512 -0.5222
vn -0.4095 -0.6509 -0.6392
vn -0.4095 0.6509 -0.6392
vn -0.1446 0.6863 -0.7128
vn -0.1446 -0.6863 -0.7128
vn 0.0780 0.6632 -0.7444
vn 0.0780 -0.6632 -0.7444
vn -0.1607 0.8703 -0.4655
vn -0.1607 -0.8703 -0.4655
vn -0.5099 0.6585 -0.5535
vn -0.5099 -0.6585 -0.5535
vn 0.5618 0.6702 -0.4850
vn 0.5618 -0.6702 -0.4850
vn 0.6995 0.6674 -0.2556
vn 0.6995 -0.6674 -0.2556
vn 0.7526 0.6550 0.0678
vn 0.7526 -0.6550 0.0678
vn 0.6310 0.6584 0.4103
vn 0.6310 -0.6584 0.4103
vn 0.5004 0.7043 0.5036
vn 0.5004 -0.7043 0.5036
vn 0.5504 0.3253 -0.7689
vn 0.9036 0.2657 -0.3361
vn 0.9036 -0.2657 -0.3361
vn 0.5504 -0.3253 -0.7689
vn 0.8077 0.5777 0.1181
vn 0.8077 -0.5777 0.1181
vn 0.1182 -0.5770 -0.8082
vn 0.1182 0.5770 -0.8082
vn -0.8077 0.5777 -0.1181
vn -0.1182 0.5770 0.8082
vn -0.1182 -0.5770 0.8082
vn -0.8077 -0.5777 -0.1181
vn -0.5366 0.3264 0.7781
vn -0.5366 -0.3264 0.7781
vn -0.9098 -0.2803 0.3060
vn -0.9098 0.2803 0.3060
vn 0.4559 0.2927 -0.8405
vn 0.8643 0.3076 -0.3981
vn 0.8642 -0.3076 -0.3981
vn 0.4559 -0.2927 -0.8405
vn 0.6200 0.7411 0.2577
vn 0.6200 -0.7411 0.2577
vn -0.7237 -0.6747 -0.1449
vn -0.7237 0.6747 -0.1449
vn -0.7265 0.6868 -0.0227
vn 0.6832 0.7244 0.0926
vn 0.6832 -0.7244 0.0926
vn -0.7265 -0.6868 -0.0227
vn 0.7053 0.7080 0.0363
vn 0.7053 -0.7080 0.0363
vn -0.7065 -0.7069 0.0348
vn -0.7065 0.7069 0.0348
vn 0.5181 -0.0000 -0.8553
vn 0.3001 -0.4013 -0.8654
vn -0.0000 -0.0000 -1.0000
vn -0.0000 -0.5074 -0.8617
vn -0.0000 0.5074 -0.8617
vn 0.3001 0.4013 -0.8654
vn -0.3000 -0.4013 -0.8654
vn -0.5181 -0.0000 -0.8553
vn -0.3000 0.4013 -0.8654
vn 0.5622 -0.7523 0.3434
vn 0.5695 -0.7626 0.3069
vn 0.9460 -0.0000 0.3243
vn 0.9067 -0.0000 0.4219
vn 0.5695 -0.7626 -0.3069
vn 0.9460 -0.0000 -0.3243
vn -0.0000 -0.9356 0.3532
vn -0.0000 -0.9513 0.3081
vn -0.0000 -0.9513 -0.3081
vn -0.0000 0.9513 -0.3081
vn 0.5695 0.7626 -0.3069
vn -0.0000 0.9513 0.3081
vn 0.5695 0.7626 0.3069
vn -0.0000 0.9356 0.3532
vn 0.5622 0.7523 0.3434
vn -0.5695 -0.7626 -0.3069
vn -0.9460 -0.0000 -0.3243
vn -0.5695 -0.7626 0.3069
vn -0.9460 -0.0000 0.3243
vn -0.5622 -0.7523 0.3434
vn -0.9066 -0.0000 0.4219
vn -0.5695 0.7626 -0.3069
vn -0.5695 0.7626 0.3069
vn -0.5622 0.7523 0.3434
vn 0.9735 -0.0000 -0.2287
vn 0.5881 -0.7871 -0.1860
vn -0.0000 -0.9816 -0.1910
vn -0.0000 0.9816 -0.1910
vn 0.5881 0.7871 -0.1860
vn -0.5881 -0.7871 -0.1860
vn -0.9735 -0.0000 -0.2287
vn -0.5881 0.7871 -0.1860
vn 0.5881 -0.7871 0.1860
vn 0.9735 -0.0000 0.2287
vn 0.9200 -0.0000 -0.3918
vn 0.5675 -0.7593 -0.3184
vn -0.0000 -0.9816 0.1910
vn -0.0000 -0.9449 -0.3274
vn 0.5881 0.7871 0.1860
vn -0.0000 0.9816 0.1910
vn -0.0000 0.9449 -0.3274
vn 0.5675 0.7593 -0.3184
vn -0.9735 -0.0000 0.2287
vn -0.5881 -0.7871 0.1860
vn -0.5675 -0.7593 -0.3184
vn -0.9200 -0.0000 -0.3918
vn -0.5881 0.7871 0.1860
vn -0.5675 0.7593 -0.3184
vn 0.9807 -0.0000 -0.1955
vn 0.5892 -0.7889 -0.1744
vn 0.9807 -0.0000 0.1955
vn 0.5892 -0.7889 0.1744
vn -0.0000 -0.9843 -0.1765
vn -0.0000 -0.9843 0.1765
vn -0.0000 0.9843 -0.1765
vn 0.5892 0.7889 -0.1744
vn -0.0000 0.9843 0.1765
vn 0.5892 0.7889 0.1744
vn -0.5892 -0.7889 -0.1744
vn -0.9807 -0.0000 -0.1955
vn -0.5892 -0.7889 0.1744
vn -0.9807 -0.0000 0.1955
vn -0.5892 0.7889 -0.1744
vn -0.5892 0.7889 0.1744
vn 0.9521 -0.0000 -0.3057
vn 0.5733 -0.7676 -0.2866
vn 0.9170 -0.0000 0.3990
vn 0.5502 -0.7367 0.3931
vn 0.8363 -0.0000 0.5482
vn 0.5340 -0.7144 0.4522
vn -0.0000 -0.9576 -0.2881
vn -0.0000 -0.9198 0.3924
vn -0.0000 -0.8854 0.4648
vn -0.0000 0.9576 -0.2881
vn 0.5733 0.7676 -0.2866
vn -0.0000 0.9198 0.3924
vn 0.5502 0.7367 0.3931
vn -0.0000 0.8854 0.4649
vn 0.5340 0.7144 0.4522
vn -0.5733 -0.7676 -0.2866
vn -0.9521 -0.0000 -0.3057
vn -0.5502 -0.7367 0.3931
vn -0.9170 -0.0000 0.3990
vn -0.5340 -0.7144 0.4522
vn -0.8363 -0.0000 0.5482
vn -0.5733 0.7676 -0.2866
vn -0.5502 0.7367 0.3931
vn -0.5340 0.7144 0.4522
vn 0.7861 -0.0000 -0.6181
vn 0.5129 -0.6862 -0.5158
vn -0.0000 -0.8481 -0.5298
vn -0.0000 0.8481 -0.5298
vn 0.5129 0.6862 -0.5158
vn -0.5129 -0.6862 -0.5158
vn -0.7861 -0.0000 -0.6181
vn -0.5129 0.6862 -0.5158
vn 0.5129 -0.6862 0.5158
vn 0.7861 -0.0000 0.6181
vn 0.4960 -0.0000 -0.8683
vn 0.3762 -0.5036 -0.7778
vn -0.0000 -0.8481 0.5298
vn -0.0000 -0.6091 -0.7931
vn 0.5129 0.6862 0.5158
vn -0.0000 0.8481 0.5298
vn -0.0000 0.6090 -0.7931
vn 0.3762 0.5036 -0.7778
vn -0.7861 -0.0000 0.6181
vn -0.5129 -0.6862 0.5158
vn -0.3762 -0.5036 -0.7778
vn -0.4960 -0.0000 -0.8683
vn -0.5129 0.6862 0.5158
vn -0.3762 0.5036 -0.7778
vn 0.8413 -0.0000 -0.5406
vn 0.4778 -0.6397 -0.6022
vn -0.0000 -0.8069 -0.5907
vn -0.0000 0.8069 -0.5907
vn 0.4777 0.6397 -0.6022
vn -0.4778 -0.6397 -0.6022
vn -0.8413 -0.0000 -0.5406
vn -0.4777 0.6397 -0.6022
vn 0.7618 -0.0000 0.6478
vn 0.4320 -0.5782 0.6921
vn 0.8825 -0.0000 0.4703
vn 0.5323 -0.7127 0.4569
vn 0.4777 -0.6397 -0.6022
vn -0.0000 -0.7306 0.6828
vn -0.0000 -0.8895 0.4570
vn -0.0000 0.7306 0.6828
vn 0.4320 0.5782 0.6921
vn -0.0000 0.8895 0.4570
vn 0.5323 0.7127 0.4569
vn 0.4778 0.6397 -0.6022
vn -0.4320 -0.5782 0.6921
vn -0.7618 -0.0000 0.6478
vn -0.4777 -0.6397 -0.6022
vn -0.5323 -0.7127 0.4569
vn -0.8825 -0.0000 0.4703
vn -0.4320 0.5782 0.6921
vn -0.5323 0.7127 0.4569
vn -0.0000 0.6507 -0.7594
vn -0.4004 0.5360 -0.7432
vn -0.3514 0.4705 0.8094
vn -0.0000 0.5669 0.8238
vn -0.5426 -0.0000 -0.8400
vn -0.4507 -0.0000 0.8927
vn -0.4004 -0.5360 -0.7432
vn -0.0000 -0.6507 -0.7594
vn -0.0000 -0.5669 0.8238
vn -0.3514 -0.4705 0.8094
vn 0.5426 -0.0000 -0.8400
vn 0.4004 0.5360 -0.7432
vn 0.3514 0.4705 0.8094
vn 0.4507 -0.0000 0.8927
vn 0.4004 -0.5360 -0.7432
vn 0.3514 -0.4705 0.8094
vn -0.0000 -0.0000 1.0000
vn -0.0000 0.8980 0.4400
vn -0.5367 0.7186 0.4422
vn -0.8985 -0.0000 0.4389
vn -0.5367 -0.7186 0.4422
vn -0.0000 -0.8980 0.4400
vn 0.8985 -0.0000 0.4389
vn 0.5367 0.7186 0.4422
vn 0.5367 -0.7186 0.4422
vn -0.5367 0.7186 -0.4422
vn -0.0000 0.8980 -0.4400
vn -0.8985 -0.0000 -0.4389
vn -0.0000 -0.8980 -0.4400
vn -0.5367 -0.7186 -0.4422
vn 0.5367 0.7186 -0.4422
vn 0.8985 -0.0000 -0.4389
vn 0.5367 -0.7186 -0.4422
vn -0.0000 0.9958 -0.0915
vn -0.9787 -0.0000 -0.2055
vn -0.9450 -0.0000 -0.3270
vn -0.0000 0.9922 -0.1250
vn 0.9787 -0.0000 -0.2055
vn 0.9450 -0.0000 -0.3270
vn 0.9659 -0.0000 -0.2589
vn -0.0000 0.9887 -0.1499
vn -0.9659 -0.0000 -0.2589
vn -0.0000 0.9594 -0.2820
vn -0.9190 -0.0000 -0.3944
vn 0.9190 -0.0000 -0.3944
vn 0.2769 0.9549 -0.1075
vn 0.9760 -0.0000 -0.2180
vn -0.2769 0.9549 -0.1075
vn -0.9760 -0.0000 -0.2180
vn -0.9966 -0.0000 -0.0819
vn -0.3924 0.9191 -0.0370
vn 0.3924 0.9191 -0.0370
vn 0.9966 -0.0000 -0.0819
vn -0.9945 -0.0000 -0.1045
vn -0.3018 0.9530 -0.0264
vn 0.3018 0.9530 -0.0264
vn 0.9945 -0.0000 -0.1045
vn -0.9700 -0.0000 -0.2429
vn -0.3506 0.9322 -0.0897
vn 0.3506 0.9322 -0.0897
vn 0.9700 -0.0000 -0.2429
vn -0.9881 -0.0000 -0.1541
vn -0.3611 0.9306 -0.0601
vn 0.3611 0.9306 -0.0601
vn 0.9881 -0.0000 -0.1541
vn -0.9504 -0.0000 -0.3111
vn -0.2934 0.9528 -0.0785
vn 0.2934 0.9528 -0.0785
vn 0.9504 -0.0000 -0.3111
vn -0.9455 -0.0000 -0.3256
vn -0.3037 0.9448 -0.1227
vn 0.3037 0.9448 -0.1227
vn 0.9455 -0.0000 -0.3256
vn -0.9963 -0.0000 -0.0861
vn -0.2907 0.9561 -0.0377
vn 0.2907 0.9561 -0.0377
vn 0.9963 -0.0000 -0.0861
vn -0.9850 -0.0000 0.1724
vn -0.3268 0.9435 0.0547
vn 0.3268 0.9435 0.0547
vn 0.9850 -0.0000 0.1724
vn -0.9599 -0.0000 0.2803
vn -0.3523 0.9330 0.0737
vn 0.3523 0.9330 0.0737
vn 0.9599 -0.0000 0.2803
vn -0.9730 -0.0000 0.2306
vn -0.4138 0.9062 0.0876
vn 0.4138 0.9062 0.0876
vn 0.9730 -0.0000 0.2306
vn -0.9230 -0.0000 0.3849
vn -0.4836 0.8502 0.2082
vn 0.4836 0.8502 0.2082
vn 0.9230 -0.0000 0.3849
vn -0.8555 -0.0000 0.5178
vn -0.5223 0.8002 0.2948
vn 0.5223 0.8002 0.2948
vn 0.8555 -0.0000 0.5178
vn -0.5280 0.8217 0.2146
vn -0.9284 -0.0000 0.3715
vn -0.0000 0.9934 0.1145
vn 0.5280 0.8217 0.2146
vn 0.9284 -0.0000 0.3715
vn -0.5674 0.8207 0.0672
vn -0.0000 0.9999 0.0135
vn -0.9853 -0.0000 0.1711
vn 0.5674 0.8207 0.0672
vn 0.9853 -0.0000 0.1711
vn -0.0000 0.9983 -0.0583
vn -0.0000 1.0000 -0.0056
vn -0.0000 0.9999 0.0170
vn -0.0000 0.9991 0.0434
vn -0.0000 0.9909 0.1343
vn -0.5985 0.8012 -0.0000
vn -1.0000 -0.0000 -0.0000
vn 0.5985 0.8012 -0.0000
vn 1.0000 -0.0000 -0.0000
vn -0.0000 -0.9958 -0.0915
vn -0.0000 -0.9922 -0.1250
vn -0.0000 -0.9887 -0.1499
vn -0.0000 -0.9594 -0.2820
vn 0.2769 -0.9549 -0.1075
vn -0.2769 -0.9549 -0.1075
vn -0.3924 -0.9191 -0.0370
vn 0.3924 -0.9191 -0.0370
vn -0.3018 -0.9530 -0.0264
vn 0.3018 -0.9530 -0.0264
vn -0.3506 -0.9322 -0.0897
vn 0.3506 -0.9322 -0.0897
vn -0.3611 -0.9306 -0.0601
vn 0.3611 -0.9306 -0.0601
vn -0.2934 -0.9528 -0.0785
vn 0.2934 -0.9528 -0.0785
vn -0.3037 -0.9448 -0.1227
vn 0.3037 -0.9448 -0.1227
vn -0.2907 -0.9561 -0.0377
vn 0.2907 -0.9561 -0.0377
vn -0.3268 -0.9435 0.0547
vn 0.3268 -0.9435 0.0547
vn -0.3523 -0.9330 0.0737
vn 0.3523 -0.9330 0.0737
vn -0.4138 -0.9062 0.0876
vn 0.4138 -0.9062 0.0876
vn -0.4836 -0.8502 0.2082
vn 0.4836 -0.8502 0.2082
vn -0.5223 -0.8002 0.2948
vn 0.5223 -0.8002 0.2948
vn -0.5280 -0.8217 0.2146
vn -0.0000 -0.9934 0.1145
vn 0.5280 -0.8217 0.2146
vn -0.0000 -0.9999 0.0135
vn -0.5674 -0.8207 0.0672
vn 0.5674 -0.8207 0.0672
vn -0.0000 -0.9983 -0.0583
vn -0.0000 -1.0000 -0.0056
vn -0.0000 -0.9999 0.0170
vn -0.0000 -0.9991 0.0434
vn -0.0000 -0.9909 0.1343
vn -0.5985 -0.8012 -0.0000
vn 0.5985 -0.8012 -0.0000
vt 0.203810 0.499231
vt 0.201219 0.451686
vt 0.175592 0.450566
vt 0.175401 0.495881
vt 0.203810 0.708489
vt 0.175401 0.705139
vt 0.175592 0.659824
vt 0.201219 0.660944
vt 0.307955 0.828947
vt 0.334597 0.831945
vt 0.333884 0.792040
vt 0.309671 0.789316
vt 0.219927 0.782100
vt 0.246742 0.782267
vt 0.248412 0.822798
vt 0.219403 0.822449
vt 0.246285 0.871128
vt 0.214754 0.861530
vt 0.300085 0.878772
vt 0.329859 0.886919
vt 0.196852 0.767513
vt 0.166826 0.751867
vt 0.166826 0.542609
vt 0.196852 0.558254
vt 0.151013 0.572192
vt 0.183362 0.595444
vt 0.183362 0.804702
vt 0.151013 0.781450
vt 0.285753 0.909298
vt 0.317305 0.928321
vt 0.233344 0.912571
vt 0.197635 0.902312
vt 0.258448 0.937928
vt 0.294181 0.971467
vt 0.333557 0.786789
vt 0.303416 0.782354
vt 0.305383 0.785124
vt 0.330875 0.788874
vt 0.215722 0.775480
vt 0.245604 0.781414
vt 0.243777 0.778550
vt 0.218504 0.773531
vt 0.535029 0.788022
vt 0.497888 0.780627
vt 0.500206 0.783941
vt 0.531618 0.790196
vt 0.432499 0.787960
vt 0.392611 0.779958
vt 0.395097 0.783522
vt 0.428831 0.790289
vt 0.171893 0.933270
vt 0.199827 0.963498
vt 0.188523 0.971854
vt 0.165345 0.939971
vt 0.286214 0.971231
vt 0.258805 0.942204
vt 0.253265 0.946777
vt 0.276372 0.978120
vt 0.126123 0.811229
vt 0.154183 0.839953
vt 0.144443 0.849484
vt 0.121085 0.816319
vt 0.153994 0.627028
vt 0.127714 0.599725
vt 0.122412 0.605437
vt 0.144413 0.636166
vt 0.205655 0.235138
vt 0.171683 0.229911
vt 0.170353 0.228077
vt 0.207475 0.233788
vt 0.172704 0.650029
vt 0.206155 0.657932
vt 0.207335 0.659867
vt 0.170783 0.651231
vt 0.204716 0.010870
vt 0.170699 0.003751
vt 0.169448 0.001861
vt 0.206619 0.009641
vt 0.205777 0.445217
vt 0.171648 0.438652
vt 0.170367 0.436783
vt 0.207660 0.443957
vt 0.163577 0.938926
vt 0.189319 0.975453
vt 0.184711 0.978290
vt 0.158969 0.940317
vt 0.277249 0.983302
vt 0.251670 0.946518
vt 0.246860 0.948589
vt 0.272439 0.985705
vt 0.119164 0.815297
vt 0.145147 0.851816
vt 0.142353 0.854977
vt 0.114731 0.817638
vt 0.145147 0.642558
vt 0.119164 0.606038
vt 0.114731 0.608380
vt 0.142353 0.645719
vt 0.115628 0.609593
vt 0.141456 0.644506
vt 0.141456 0.853764
vt 0.115628 0.818851
vt 0.232785 0.623489
vt 0.256711 0.623489
vt 0.255791 0.679181
vt 0.232282 0.679181
vt 0.278179 0.513114
vt 0.304632 0.513114
vt 0.306606 0.551127
vt 0.276205 0.551127
vt 0.110786 0.876997
vt 0.054723 0.876068
vt 0.054723 0.666810
vt 0.110786 0.667738
vt 0.029237 0.692362
vt 0.065695 0.703904
vt 0.065695 0.913162
vt 0.029237 0.901621
vt 0.259634 0.710230
vt 0.229976 0.710230
vt 0.260146 0.727015
vt 0.229976 0.727015
vt 0.044261 0.935062
vt 0.020580 0.921003
vt 0.020580 0.711745
vt 0.044261 0.725803
vt 0.021925 0.731099
vt 0.021925 0.940357
vt 0.260146 0.739882
vt 0.229976 0.739882
vt 0.260146 0.747659
vt 0.229976 0.747659
vt 0.032479 0.957532
vt 0.032479 0.748273
vt 0.040134 0.754142
vt 0.040133 0.963400
vt 0.260146 0.749185
vt 0.229976 0.749185
vt 0.057457 0.947997
vt 0.059551 0.965864
vt 0.059551 0.756606
vt 0.057457 0.738739
vt 0.069901 0.746871
vt 0.069895 0.734891
vt 0.069895 0.944149
vt 0.069901 0.956129
vt 0.305845 0.739462
vt 0.275506 0.739462
vt 0.275506 0.727954
vt 0.305845 0.727954
vt 0.275506 0.716644
vt 0.305845 0.716644
vt 0.083609 0.927023
vt 0.073959 0.954236
vt 0.073959 0.744978
vt 0.083609 0.717764
vt 0.081194 0.747325
vt 0.081194 0.956583
vt 0.275506 0.711414
vt 0.305845 0.711414
vt 0.276178 0.700897
vt 0.305173 0.700897
vt 0.105134 0.921621
vt 0.094961 0.955574
vt 0.094961 0.746315
vt 0.105134 0.712363
vt 0.103054 0.741775
vt 0.103054 0.951034
vt 0.277223 0.691490
vt 0.304128 0.691490
vt 0.110801 0.732773
vt 0.278216 0.677718
vt 0.302174 0.677718
vt 0.110801 0.942032
vt 0.117153 0.919232
vt 0.121856 0.937389
vt 0.278216 0.666685
vt 0.302174 0.666685
vt 0.121856 0.728131
vt 0.117153 0.709974
vt 0.128812 0.727520
vt 0.126474 0.708624
vt 0.278491 0.637032
vt 0.301730 0.637032
vt 0.301730 0.639982
vt 0.278491 0.639982
vt 0.278216 0.660184
vt 0.302174 0.660184
vt 0.126474 0.917882
vt 0.128812 0.936778
vt 0.132927 0.922770
vt 0.135460 0.935019
vt 0.278216 0.654596
vt 0.302174 0.654596
vt 0.301730 0.646285
vt 0.278491 0.646285
vt 0.135460 0.725760
vt 0.132926 0.713512
vt 0.137210 0.722940
vt 0.136426 0.717302
vt 0.301730 0.650537
vt 0.278491 0.650537
vt 0.278216 0.651591
vt 0.302174 0.651591
vt 0.136426 0.926560
vt 0.137210 0.932198
vt 0.278216 0.650054
vt 0.302174 0.650054
vt 0.069071 0.923653
vt 0.069071 0.714395
vt 0.116213 0.899937
vt 0.116213 0.690679
vt 0.113393 0.894139
vt 0.113393 0.684881
vt 0.301730 0.611746
vt 0.301730 0.623298
vt 0.278491 0.623298
vt 0.278491 0.611746
vt 0.278491 0.631229
vt 0.301730 0.631229
vt 0.118909 0.698512
vt 0.118909 0.907770
vt 0.306606 0.578698
vt 0.276205 0.578698
vt 0.276205 0.574693
vt 0.306606 0.574693
vt 0.116188 0.682593
vt 0.119414 0.670368
vt 0.119414 0.879626
vt 0.116188 0.891851
vt 0.306606 0.553709
vt 0.276205 0.553709
vt 0.306606 0.564880
vt 0.276205 0.564880
vt 0.121879 0.884298
vt 0.119788 0.890823
vt 0.119788 0.681564
vt 0.121879 0.675040
vt 0.276205 0.574558
vt 0.306606 0.574558
vt 0.039845 0.761937
vt 0.052344 0.763948
vt 0.305845 0.749500
vt 0.275506 0.749500
vt 0.052344 0.973206
vt 0.039845 0.971195
vt 0.260146 0.756002
vt 0.229976 0.756002
vt 0.260146 0.760616
vt 0.229976 0.760616
vt 0.044215 0.980505
vt 0.040885 0.981532
vt 0.305845 0.755141
vt 0.275506 0.755141
vt 0.040885 0.772274
vt 0.044215 0.771246
vt 0.305845 0.758631
vt 0.275506 0.758631
vt 0.221335 0.941259
vt 0.182985 0.919670
vt 0.207628 0.965919
vt 0.170649 0.928780
vt 0.140252 0.794553
vt 0.161077 0.841675
vt 0.125056 0.806162
vt 0.140252 0.585295
vt 0.161077 0.632416
vt 0.125056 0.596904
vt 0.140252 0.146051
vt 0.125056 0.157660
vt 0.161077 0.193173
vt 0.151013 0.132948
vt 0.183362 0.156200
vt 0.140252 0.370459
vt 0.151013 0.357355
vt 0.183362 0.380607
vt 0.125056 0.382067
vt 0.161077 0.417580
vt 0.401045 0.948590
vt 0.387339 0.973249
vt 0.350360 0.936110
vt 0.362696 0.927000
vt 0.413055 0.919901
vt 0.377346 0.909642
vt 0.305845 0.576599
vt 0.275506 0.576599
vt 0.275506 0.573109
vt 0.305845 0.573109
vt 0.052344 0.324704
vt 0.039845 0.322693
vt 0.040885 0.333030
vt 0.044215 0.332003
vt 0.275506 0.567468
vt 0.305845 0.567468
vt 0.039845 0.547100
vt 0.052344 0.549112
vt 0.044215 0.556410
vt 0.040885 0.557437
vt 0.229976 0.573970
vt 0.260146 0.573970
vt 0.260146 0.578584
vt 0.229976 0.578584
vt 0.229976 0.567153
vt 0.260146 0.567153
vt 0.040133 0.539306
vt 0.059551 0.541770
vt 0.275506 0.557430
vt 0.305845 0.557430
vt 0.059551 0.317362
vt 0.040134 0.314898
vt 0.351197 0.746301
vt 0.351197 0.755979
vt 0.320797 0.755979
vt 0.320797 0.746301
vt 0.351197 0.756114
vt 0.320797 0.756114
vt 0.119414 0.231124
vt 0.116188 0.243349
vt 0.119788 0.242321
vt 0.121879 0.235796
vt 0.116188 0.467756
vt 0.119414 0.455531
vt 0.121879 0.460203
vt 0.119788 0.466728
vt 0.320797 0.735130
vt 0.351197 0.735130
vt 0.320797 0.732548
vt 0.351197 0.732548
vt 0.113393 0.470044
vt 0.110786 0.452902
vt 0.110786 0.228495
vt 0.113393 0.245637
vt 0.351197 0.760119
vt 0.320797 0.760119
vt 0.118909 0.483675
vt 0.117153 0.495137
vt 0.105134 0.497526
vt 0.116213 0.475842
vt 0.118909 0.259268
vt 0.116213 0.251435
vt 0.117153 0.270730
vt 0.105134 0.273119
vt 0.278491 0.449197
vt 0.278491 0.441266
vt 0.301730 0.441266
vt 0.301730 0.449197
vt 0.278491 0.455000
vt 0.301730 0.455000
vt 0.301730 0.429714
vt 0.278491 0.429714
vt 0.065695 0.264660
vt 0.065695 0.489067
vt 0.069071 0.275151
vt 0.083609 0.278521
vt 0.069071 0.499559
vt 0.083609 0.502928
vt 0.044261 0.286560
vt 0.057457 0.523902
vt 0.044261 0.510967
vt 0.057457 0.299495
vt 0.069895 0.295647
vt 0.069895 0.520054
vt 0.278216 0.468022
vt 0.302174 0.468022
vt 0.302174 0.469559
vt 0.278216 0.469559
vt 0.135460 0.510924
vt 0.132927 0.498676
vt 0.136426 0.502465
vt 0.137210 0.508103
vt 0.302174 0.472564
vt 0.278216 0.472564
vt 0.278491 0.464253
vt 0.301730 0.464253
vt 0.301730 0.468505
vt 0.278491 0.468505
vt 0.132926 0.274269
vt 0.135460 0.286517
vt 0.137210 0.283696
vt 0.136426 0.278058
vt 0.126474 0.269380
vt 0.128812 0.288277
vt 0.278491 0.457950
vt 0.301730 0.457950
vt 0.302174 0.478152
vt 0.278216 0.478152
vt 0.128812 0.512684
vt 0.126474 0.493787
vt 0.121856 0.513295
vt 0.302174 0.484653
vt 0.278216 0.484653
vt 0.121856 0.288887
vt 0.110801 0.293530
vt 0.302174 0.495686
vt 0.278216 0.495686
vt 0.110801 0.517937
vt 0.103054 0.526939
vt 0.304128 0.509458
vt 0.277223 0.509458
vt 0.103054 0.302532
vt 0.305173 0.518865
vt 0.276178 0.518865
vt 0.094961 0.531479
vt 0.094961 0.307072
vt 0.081194 0.308081
vt 0.081194 0.532488
vt 0.305845 0.529382
vt 0.275506 0.529382
vt 0.305845 0.534612
vt 0.275506 0.534612
vt 0.073959 0.530142
vt 0.073959 0.305735
vt 0.069901 0.307627
vt 0.069901 0.532034
vt 0.305845 0.545922
vt 0.275506 0.545922
vt 0.229976 0.565627
vt 0.260146 0.565627
vt 0.032479 0.533437
vt 0.032479 0.309030
vt 0.021925 0.291855
vt 0.021925 0.516263
vt 0.229976 0.557850
vt 0.260146 0.557850
vt 0.229976 0.544983
vt 0.260146 0.544983
vt 0.020580 0.496908
vt 0.020580 0.272501
vt 0.029237 0.253119
vt 0.029237 0.477526
vt 0.229976 0.528198
vt 0.259634 0.528198
vt 0.232282 0.497149
vt 0.255791 0.497149
vt 0.054723 0.451973
vt 0.054723 0.227566
vt 0.141456 0.205263
vt 0.115628 0.170349
vt 0.115628 0.394756
vt 0.141456 0.429670
vt 0.322770 0.694535
vt 0.349224 0.694535
vt 0.232785 0.441457
vt 0.256711 0.441457
vt 0.114731 0.393544
vt 0.142353 0.430882
vt 0.142353 0.206475
vt 0.114731 0.169136
vt 0.145147 0.203314
vt 0.119164 0.166795
vt 0.119164 0.391202
vt 0.145147 0.427721
vt 0.474063 0.984524
vt 0.448484 0.947739
vt 0.443674 0.949811
vt 0.469253 0.986926
vt 0.343288 0.946257
vt 0.369030 0.982783
vt 0.364422 0.985621
vt 0.338680 0.947647
vt 0.153994 0.187784
vt 0.127714 0.160481
vt 0.122412 0.166193
vt 0.144413 0.196923
vt 0.126123 0.387134
vt 0.154183 0.415858
vt 0.144443 0.425389
vt 0.121085 0.392224
vt 0.483028 0.972453
vt 0.455619 0.943426
vt 0.450079 0.947999
vt 0.473187 0.979342
vt 0.351604 0.940600
vt 0.379537 0.970828
vt 0.368233 0.979184
vt 0.345055 0.947301
vt 0.514120 0.929543
vt 0.482567 0.910519
vt 0.455263 0.939150
vt 0.490995 0.972689
vt 0.394465 0.868861
vt 0.425996 0.878458
vt 0.526673 0.888140
vt 0.496900 0.879994
vt 0.166826 0.327772
vt 0.196852 0.343418
vt 0.196852 0.119011
vt 0.166826 0.103365
vt 0.203810 0.059987
vt 0.175401 0.056637
vt 0.175401 0.281044
vt 0.203810 0.284394
vt 0.531412 0.833166
vt 0.504770 0.830168
vt 0.399114 0.829779
vt 0.428123 0.830128
vt 0.399638 0.789431
vt 0.426453 0.789597
vt 0.530698 0.793262
vt 0.506486 0.790537
vt 0.175592 0.235730
vt 0.201219 0.236850
vt 0.201219 0.012442
vt 0.175592 0.011322
vt 0.933751 0.352926
vt 0.889539 0.349058
vt 0.906079 0.307874
vt 0.867469 0.331589
vt 0.944690 0.284158
vt 0.950292 0.311742
vt 0.861867 0.304005
vt 0.878407 0.262821
vt 0.922620 0.266689
vt 0.286676 0.297104
vt 0.285894 0.312544
vt 0.239773 0.310797
vt 0.248303 0.293853
vt 0.286277 0.329959
vt 0.239564 0.331386
vt 0.286998 0.345541
vt 0.248108 0.348612
vt 0.311670 0.296751
vt 0.311480 0.313244
vt 0.312061 0.329384
vt 0.312185 0.345944
vt 0.437242 0.345734
vt 0.437431 0.329238
vt 0.463023 0.329934
vt 0.462242 0.345378
vt 0.436848 0.313094
vt 0.462637 0.312516
vt 0.436722 0.296532
vt 0.461913 0.296931
vt 0.509154 0.331675
vt 0.500625 0.348625
vt 0.509361 0.311081
vt 0.500813 0.293853
vt 0.337179 0.344843
vt 0.337156 0.329859
vt 0.374887 0.328532
vt 0.374873 0.344608
vt 0.336730 0.312738
vt 0.374016 0.313953
vt 0.336684 0.297807
vt 0.374030 0.297877
vt 0.412177 0.329745
vt 0.412224 0.344679
vt 0.411750 0.312623
vt 0.411725 0.297637
vt 0.792976 0.703263
vt 0.765068 0.703733
vt 0.765068 0.447548
vt 0.792976 0.447078
vt 0.820772 0.701764
vt 0.820772 0.445580
vt 0.959974 0.696330
vt 0.932179 0.697828
vt 0.932179 0.441643
vt 0.959974 0.440145
vt 0.987882 0.695859
vt 0.987882 0.439675
vt 0.876475 0.699796
vt 0.848567 0.700267
vt 0.848567 0.444082
vt 0.876475 0.443612
vt 0.904383 0.699326
vt 0.904383 0.443141
vt 0.798193 0.959772
vt 0.771028 0.960136
vt 0.771026 0.710868
vt 0.798191 0.710504
vt 0.825242 0.958352
vt 0.825240 0.709084
vt 0.960718 0.953364
vt 0.933669 0.954784
vt 0.933668 0.705517
vt 0.960717 0.704097
vt 0.987882 0.953000
vt 0.987882 0.703733
vt 0.879456 0.956568
vt 0.852291 0.956932
vt 0.852289 0.707664
vt 0.879454 0.707300
vt 0.906620 0.956204
vt 0.906619 0.706936
vt 0.757231 0.351356
vt 0.759938 0.361360
vt 0.722472 0.361755
vt 0.722336 0.352298
vt 0.759925 0.372284
vt 0.722585 0.371946
vt 0.757243 0.382260
vt 0.722459 0.381379
vt 0.700034 0.361909
vt 0.700025 0.352117
vt 0.700201 0.371784
vt 0.700185 0.381580
vt 0.587283 0.352076
vt 0.587261 0.361866
vt 0.564892 0.361689
vt 0.565025 0.352263
vt 0.587422 0.371736
vt 0.564998 0.371873
vt 0.587424 0.381523
vt 0.565127 0.381324
vt 0.527581 0.361322
vt 0.530269 0.351356
vt 0.527559 0.372237
vt 0.530256 0.382236
vt 0.677767 0.352428
vt 0.677791 0.361716
vt 0.643622 0.362127
vt 0.643629 0.352560
vt 0.677885 0.371976
vt 0.643819 0.371543
vt 0.677863 0.381263
vt 0.643810 0.381111
vt 0.609566 0.361685
vt 0.609591 0.352403
vt 0.609655 0.371942
vt 0.609675 0.381228
vt 0.756673 0.306671
vt 0.759938 0.321477
vt 0.716003 0.313102
vt 0.717871 0.300845
vt 0.756552 0.336739
vt 0.713773 0.326082
vt 0.742577 0.351356
vt 0.710083 0.341102
vt 0.691590 0.309480
vt 0.693225 0.296452
vt 0.690404 0.321548
vt 0.687987 0.338080
vt 0.572248 0.298203
vt 0.574060 0.310742
vt 0.550794 0.314613
vt 0.548798 0.302971
vt 0.576199 0.322252
vt 0.553626 0.326788
vt 0.578644 0.338281
vt 0.557276 0.341278
vt 0.509361 0.323053
vt 0.512231 0.309037
vt 0.512550 0.337402
vt 0.526082 0.351356
vt 0.668535 0.295031
vt 0.667739 0.306718
vt 0.632240 0.306199
vt 0.632101 0.293853
vt 0.667076 0.319584
vt 0.632924 0.316965
vt 0.666023 0.334494
vt 0.632983 0.333252
vt 0.597319 0.307567
vt 0.596222 0.296135
vt 0.598735 0.320040
vt 0.599934 0.334704
vt 0.731948 0.709073
vt 0.758583 0.707052
vt 0.758583 0.953125
vt 0.731948 0.955146
vt 0.705318 0.711144
vt 0.705318 0.957217
vt 0.572159 0.721398
vt 0.598789 0.719327
vt 0.598789 0.965401
vt 0.572159 0.967472
vt 0.545524 0.723419
vt 0.545524 0.969493
vt 0.652053 0.715235
vt 0.678689 0.713215
vt 0.678689 0.959289
vt 0.652054 0.961309
vt 0.625418 0.717256
vt 0.625418 0.963330
vt 0.737215 0.471347
vt 0.762826 0.471378
vt 0.750395 0.707037
vt 0.724784 0.707007
vt 0.711608 0.471370
vt 0.699177 0.707029
vt 0.583566 0.471379
vt 0.609173 0.471356
vt 0.596741 0.707015
vt 0.571134 0.707038
vt 0.557956 0.471349
vt 0.545524 0.707007
vt 0.660391 0.471363
vt 0.686001 0.471393
vt 0.673569 0.707052
vt 0.647959 0.707022
vt 0.634780 0.471333
vt 0.622349 0.706992
vt 0.818792 0.248463
vt 0.794996 0.255523
vt 0.778998 0.240994
vt 0.816082 0.233326
vt 0.836417 0.248850
vt 0.835711 0.231751
vt 0.941203 0.259176
vt 0.923751 0.256495
vt 0.927413 0.239758
vt 0.946499 0.244713
vt 0.963464 0.270262
vt 0.981755 0.258689
vt 0.880336 0.249637
vt 0.853842 0.247006
vt 0.854397 0.231953
vt 0.881877 0.232003
vt 0.906894 0.251647
vt 0.908959 0.236718
vt 0.780394 0.204145
vt 0.814598 0.205319
vt 0.783953 0.165512
vt 0.785021 0.129402
vt 0.815460 0.128681
vt 0.814956 0.163479
vt 0.835438 0.205488
vt 0.836252 0.128288
vt 0.835948 0.163166
vt 0.932227 0.213913
vt 0.952804 0.217348
vt 0.939028 0.172103
vt 0.944731 0.137665
vt 0.965166 0.141632
vt 0.959670 0.176030
vt 0.986743 0.222098
vt 0.995058 0.147585
vt 0.989891 0.183378
vt 0.855385 0.205003
vt 0.883789 0.210068
vt 0.856529 0.164427
vt 0.857150 0.128345
vt 0.890840 0.128767
vt 0.887871 0.163081
vt 0.912650 0.209988
vt 0.924118 0.134126
vt 0.918525 0.169800
vt 0.938461 0.175746
vt 0.918088 0.172868
vt 0.913005 0.207038
vt 0.932858 0.210360
vt 0.887474 0.167670
vt 0.884159 0.205829
vt 0.856430 0.167521
vt 0.835879 0.166848
vt 0.835430 0.201883
vt 0.855545 0.202039
vt 0.985864 0.186612
vt 0.958886 0.179285
vt 0.953234 0.213948
vt 0.983886 0.217137
vt 0.815168 0.166816
vt 0.814762 0.201900
vt 0.787360 0.169385
vt 0.784056 0.199759
vt 0.850377 0.325489
vt 0.850377 0.372176
vt 0.805158 0.341921
vt 0.832308 0.301343
vt 0.807222 0.389990
vt 0.778008 0.382500
vt 0.759938 0.311666
vt 0.803094 0.293853
vt 0.759938 0.358354
vt 0.429130 0.352618
vt 0.449970 0.351920
vt 0.450069 0.359707
vt 0.429253 0.359205
vt 0.399529 0.354030
vt 0.399528 0.361249
vt 0.348418 0.351581
vt 0.369266 0.352335
vt 0.369091 0.358998
vt 0.348355 0.359425
vt 0.470929 0.351919
vt 0.503366 0.348634
vt 0.508916 0.356283
vt 0.471349 0.358998
vt 0.327173 0.351657
vt 0.326804 0.358886
vt 0.293691 0.348625
vt 0.288044 0.356586
vt 0.448999 0.386842
vt 0.428146 0.386110
vt 0.428316 0.379445
vt 0.449052 0.378997
vt 0.397874 0.384425
vt 0.397875 0.377205
vt 0.368259 0.385832
vt 0.347404 0.386510
vt 0.347314 0.378719
vt 0.368140 0.379241
vt 0.503729 0.389704
vt 0.470246 0.386733
vt 0.470603 0.379503
vt 0.509361 0.381733
vt 0.326433 0.386477
vt 0.326025 0.379394
vt 0.293980 0.389704
vt 0.288443 0.382043
vt 0.298275 0.212230
vt 0.298275 0.192840
vt 0.338713 0.184426
vt 0.336023 0.210487
vt 0.298275 0.231619
vt 0.338841 0.240418
vt 0.240547 0.217371
vt 0.240547 0.211307
vt 0.240547 0.205243
vt 0.227574 0.211307
vt 0.227574 0.208705
vt 0.227574 0.213909
vt 0.222970 0.211307
vt 0.361390 0.229951
vt 0.361774 0.244802
vt 0.361518 0.193458
vt 0.361774 0.180528
vt 0.385905 0.176652
vt 0.385905 0.186541
vt 0.385905 0.237131
vt 0.385777 0.248045
vt 0.411767 0.178054
vt 0.411767 0.191366
vt 0.411767 0.233708
vt 0.411767 0.247405
vt 0.431775 0.171504
vt 0.431775 0.183199
vt 0.431518 0.241037
vt 0.431262 0.252989
vt 0.449586 0.170304
vt 0.449586 0.182225
vt 0.449586 0.242849
vt 0.449586 0.255794
vt 0.472032 0.168179
vt 0.472032 0.180699
vt 0.472032 0.244375
vt 0.471520 0.257407
vt 0.496894 0.154714
vt 0.496894 0.171035
vt 0.496894 0.254039
vt 0.496638 0.272153
vt 0.525346 0.146691
vt 0.525346 0.164781
vt 0.525096 0.258540
vt 0.524840 0.278937
vt 0.552184 0.148340
vt 0.552184 0.166177
vt 0.552184 0.257895
vt 0.552184 0.277398
vt 0.584468 0.160848
vt 0.584468 0.175437
vt 0.584468 0.249636
vt 0.584468 0.264226
vt 0.611685 0.165320
vt 0.611685 0.178176
vt 0.611557 0.245231
vt 0.611300 0.261034
vt 0.642241 0.173114
vt 0.642241 0.183734
vt 0.641728 0.242364
vt 0.641728 0.252984
vt 0.661280 0.187978
vt 0.661280 0.194910
vt 0.661280 0.230164
vt 0.661280 0.237096
vt 0.679463 0.203839
vt 0.679463 0.195142
vt 0.679463 0.212537
vt 0.679463 0.221235
vt 0.679463 0.229932
vt 0.686256 0.205165
vt 0.686256 0.212537
vt 0.686256 0.197793
vt 0.686256 0.219909
vt 0.686256 0.227281
vt 0.552184 0.212537
vt 0.584468 0.212537
vt 0.611557 0.212537
vt 0.641984 0.212537
vt 0.661280 0.212537
vt 0.760471 0.205165
vt 0.760471 0.212537
vt 0.760471 0.197793
vt 0.760471 0.219909
vt 0.760471 0.227281
s 1
usemtl Material.001_Tx_w_Nrd_WntrBt.dds
f 17/1/1 18/2/2 19/3/3 20/4/4
f 21/5/5 24/6/6 23/7/7 22/8/8
f 17/9/1 21/10/5 22/11/8 18/12/2
f 19/13/3 23/14/7 24/15/6 20/16/4
f 20/16/4 24/15/6 25/17/9 27/18/10
f 21/10/5 17/9/1 28/19/11 26/20/12
f 24/6/6 21/5/5 26/21/12 25/22/9
f 17/1/1 20/4/4 27/23/10 28/24/11
f 28/24/11 27/23/10 30/25/13 29/26/14
f 25/22/9 26/21/12 31/27/15 32/28/16
f 26/20/12 28/19/11 29/29/14 31/30/15
f 27/18/10 25/17/9 32/31/16 30/32/13
f 31/30/15 29/29/14 36/33/17 34/34/18
f 36/35/17 35/36/19 38/37/20 37/38/21
f 33/39/22 34/40/18 39/41/23 40/42/24
f 34/43/18 36/44/17 37/45/21 39/46/23
f 35/47/19 33/48/22 40/49/24 38/50/20
f 38/51/20 40/52/24 41/53/25 43/54/26
f 39/55/23 37/56/21 44/57/27 42/58/28
f 40/59/24 39/60/23 42/61/28 41/62/25
f 37/63/21 38/64/20 43/65/26 44/66/27
f 44/67/27 43/68/26 46/69/29 45/70/30
f 41/71/25 42/72/28 47/73/31 48/74/32
f 42/75/28 44/76/27 45/77/30 47/78/31
f 43/79/26 41/80/25 48/81/32 46/82/29
f 46/83/29 48/84/32 49/85/33 51/86/34
f 47/87/31 45/88/30 52/89/35 50/90/36
f 48/91/32 47/92/31 50/93/36 49/94/33
f 45/95/30 46/96/29 51/97/34 52/98/35
f 52/98/35 51/97/34 54/99/37 53/100/38
f 49/94/33 50/93/36 55/101/39 56/102/40
f 50/93/36 52/93/35 53/101/38 55/101/39
f 51/94/34 49/94/33 56/102/40 54/102/37
f 54/103/37 56/104/40 57/105/41 59/106/42
f 55/107/39 53/108/38 60/109/43 58/110/44
f 56/102/40 55/101/39 58/111/44 57/112/41
f 53/100/38 54/99/37 59/113/42 60/114/43
f 60/114/43 59/113/42 62/115/45 61/116/46
f 57/112/41 58/111/44 63/117/47 64/118/48
f 59/106/42 57/105/41 64/119/48 62/120/45
f 62/120/45 64/119/48 65/121/49 66/122/50
f 64/118/48 63/117/47 71/123/47 65/124/49
f 61/116/46 62/115/45 66/125/50 67/126/46
f 67/126/46 66/125/50 68/127/51
f 65/124/49 71/123/47 69/128/52
f 66/122/50 65/121/49 69/129/52 68/130/51
f 68/130/51 69/129/52 70/131/53 72/132/54
f 69/128/52 71/123/47 70/133/53
f 67/126/46 68/127/51 72/134/54
f 67/126/46 72/134/54 73/135/55
f 70/133/53 71/123/47 74/136/56
f 72/132/54 70/131/53 74/137/56 73/138/55
f 74/136/56 71/123/47 76/139/47 75/140/57
f 67/126/46 73/135/55 77/141/58 78/142/46
f 78/142/46 77/141/58 80/143/59 79/144/46
f 75/140/57 76/139/47 81/145/47 82/146/60
f 77/147/58 75/148/57 82/149/60 80/150/59
f 80/150/59 82/149/60 83/151/61 84/152/62
f 82/146/60 81/145/47 87/153/47 83/154/61
f 79/144/46 80/143/59 84/155/62 85/156/46
f 85/156/46 84/155/62 86/157/63
f 83/154/61 87/153/47 88/158/64
f 84/152/62 83/151/61 88/159/64 86/160/63
f 86/160/63 88/159/64 89/161/65 90/162/66
f 88/158/64 87/153/47 94/163/47 89/164/65
f 85/156/46 86/157/63 90/165/66 96/166/46
f 96/166/46 90/165/66 91/167/67
f 89/164/65 94/163/47 92/168/68
f 90/162/66 89/161/65 92/169/68 91/170/67
f 96/166/46 91/167/67 95/171/69
f 91/170/67 92/169/68 93/172/70 95/173/69
f 92/168/68 94/163/47 93/174/70
f 93/174/70 94/163/47 99/175/71 100/176/72
f 95/173/69 93/172/70 100/177/72 98/178/73
f 96/166/46 95/171/69 98/179/73 97/180/74
f 97/180/74 98/179/73 103/181/75 104/182/76
f 99/183/71 97/184/74 104/185/76 102/186/77
f 98/178/73 100/177/72 101/187/78 103/188/75
f 100/176/72 99/175/71 102/189/77 101/190/78
f 101/190/78 102/189/77 107/191/79 108/192/80
f 103/188/75 101/187/78 108/193/80 106/194/81
f 102/186/77 104/185/76 105/195/82 107/196/79
f 104/182/76 103/181/75 106/197/81 105/198/82
f 105/198/82 106/197/81 111/199/83 112/200/84
f 107/196/79 105/195/82 112/201/84 110/202/85
f 106/194/81 108/193/80 109/203/86 111/204/83
f 108/192/80 107/191/79 110/205/85 109/206/86
f 110/207/85 112/208/84 111/204/83 109/203/86
f 87/153/47 81/145/47 114/209/47
f 79/144/46 85/156/46 113/210/46
f 81/145/47 76/139/47 114/209/47
f 78/142/46 79/144/46 113/210/46
f 71/123/47 63/117/47 114/209/47
f 67/126/46 78/142/46 113/210/46
f 76/139/47 71/123/47 114/209/47
f 61/116/46 67/126/46 113/210/46
f 87/153/47 114/209/47 115/211/87 121/211/87
f 85/156/46 96/166/46 119/212/88 122/212/89
f 94/163/47 87/153/47 121/211/87 120/211/90
f 114/209/47 63/117/47 123/211/91 115/211/87
f 61/116/46 113/210/46 116/212/89 124/212/92
f 113/210/46 85/156/46 122/212/89 116/212/89
f 126/211/93 125/211/93 124/211/92 123/211/91
f 121/211/87 122/211/89 119/211/88 120/211/90
f 120/211/90 119/211/88 118/211/94 117/211/94
f 122/211/89 121/211/87 115/211/87 116/211/89
f 123/211/91 124/211/92 116/211/89 115/211/87
f 127/213/95 123/211/91 63/117/47
f 58/111/44 127/213/95 63/117/47
f 127/213/95 126/211/93 123/211/91
f 128/214/96 61/116/46 124/212/92
f 125/212/93 128/214/96 124/212/92
f 128/214/96 60/114/43 61/116/46
f 128/215/96 125/216/93 126/217/93 127/218/95
f 99/183/71 129/219/97 130/220/98 97/184/74
f 129/219/97 117/217/94 118/216/94 130/220/98
f 130/221/98 119/212/88 96/166/46
f 97/180/74 130/221/98 96/166/46
f 130/221/98 118/212/94 119/212/88
f 129/222/97 94/163/47 120/211/90
f 117/211/94 129/222/97 120/211/90
f 129/222/97 99/175/71 94/163/47
f 128/223/96 127/224/95 132/225/99 131/226/100
f 60/114/43 128/214/96 131/227/100 133/228/101
f 127/213/95 58/111/44 134/229/102 132/230/99
f 58/110/44 60/109/43 133/231/101 134/232/102
f 134/232/102 133/231/101 136/233/103 135/234/104
f 132/230/99 134/229/102 135/235/104 137/236/105
f 133/228/101 131/227/100 138/237/106 136/238/103
f 131/226/100 132/225/99 137/239/105 138/240/106
f 136/233/103 138/240/106 137/239/105 135/234/104
f 77/141/58 73/135/55 142/241/107 139/242/108
f 75/148/57 77/147/58 139/243/108 140/244/109
f 74/136/56 75/140/57 140/245/109 141/246/110
f 73/138/55 74/137/56 141/247/110 142/248/107
f 142/248/107 141/247/110 144/249/111 143/250/112
f 141/246/110 140/245/109 145/251/113 144/252/111
f 140/244/109 139/243/108 146/253/114 145/254/113
f 139/242/108 142/241/107 143/255/112 146/256/114
f 143/257/112 144/258/111 145/254/113 146/253/114
f 32/31/16 147/259/115 148/260/116 30/32/13
f 147/259/115 33/261/22 35/262/19 148/260/116
f 147/263/115 31/27/15 34/264/18
f 33/265/22 147/263/115 34/264/18
f 147/263/115 32/28/16 31/27/15
f 148/266/116 36/267/17 29/26/14
f 30/25/13 148/266/116 29/26/14
f 148/266/116 35/268/19 36/267/17
f 149/269/117 262/270/118 261/271/119
f 267/272/120 149/269/117 268/273/121
f 149/269/117 261/271/119 268/273/121
f 150/274/122 265/275/123 266/276/124
f 264/277/125 150/274/122 263/278/126
f 150/274/122 266/276/124 263/278/126
f 150/279/122 264/280/125 262/281/118 149/282/117
f 265/283/123 150/279/122 149/282/117 267/284/120
f 154/285/127 153/286/128 152/287/129 151/288/130
f 158/289/131 155/290/132 154/291/127 151/292/130
f 157/293/133 158/294/131 151/288/130 152/287/129
f 156/295/134 157/296/133 152/297/129 153/298/128
f 155/299/132 156/300/134 153/301/128 154/302/127
f 224/303/135 223/304/136 156/300/134 155/299/132
f 223/305/136 222/306/137 157/296/133 156/295/134
f 222/307/137 220/308/138 158/294/131 157/293/133
f 220/309/138 224/310/135 155/290/132 158/289/131
f 161/311/139 159/312/140 160/313/141 162/314/142
f 166/315/143 165/316/144 160/313/141 159/312/140
f 164/317/145 166/318/143 159/319/140 161/320/139
f 165/321/144 163/322/146 162/323/142 160/324/141
f 163/325/146 164/326/145 161/311/139 162/314/142
f 239/327/147 237/328/148 164/326/145 163/325/146
f 170/329/149 239/330/147 163/322/146 165/321/144
f 237/331/148 169/332/150 166/318/143 164/317/145
f 169/333/150 170/334/149 165/316/144 166/315/143
f 168/335/151 198/336/152 203/337/46
f 180/338/153 168/335/151 177/338/88
f 168/335/151 203/337/46 177/338/88
f 167/339/154 179/340/153 178/340/90
f 200/341/155 167/339/154 201/342/47
f 167/339/154 178/340/90 201/342/47
f 168/343/151 180/344/153 179/345/153 167/346/154
f 198/347/152 168/343/151 167/346/154 200/348/155
f 169/349/150 172/345/156 171/344/156 170/350/149
f 169/332/150 237/331/148 236/351/47
f 172/340/156 169/332/150 173/340/91
f 169/332/150 236/351/47 173/340/91
f 170/329/149 171/338/156 174/338/92
f 239/330/147 170/329/149 234/352/46
f 170/329/149 174/338/92 234/352/46
f 174/338/92 173/338/91 181/338/87 182/338/89
f 175/338/87 176/338/89 182/338/89 181/338/87
f 177/338/88 178/338/90 179/338/153 180/338/153
f 176/338/89 175/338/87 178/338/90 177/338/88
f 171/338/156 172/338/156 173/338/91 174/338/92
f 184/353/47 212/354/47 175/340/87 181/340/87
f 236/351/47 184/353/47 181/340/87 173/340/91
f 183/355/46 234/352/46 174/338/92 182/338/89
f 203/337/46 210/356/46 176/338/89 177/338/88
f 212/354/47 201/342/47 178/340/90 175/340/87
f 210/356/46 183/355/46 182/338/89 176/338/89
f 236/351/47 230/357/47 184/353/47
f 221/358/46 226/359/46 183/355/46
f 230/357/47 219/360/47 184/353/47
f 226/359/46 234/352/46 183/355/46
f 219/360/47 218/361/47 184/353/47
f 216/362/46 221/358/46 183/355/46
f 218/361/47 212/354/47 184/353/47
f 210/356/46 216/362/46 183/355/46
f 187/363/157 185/364/158 186/365/159 188/366/160
f 189/367/161 190/368/162 187/369/157 188/370/160
f 191/371/163 189/372/161 188/366/160 186/365/159
f 190/373/162 192/374/164 185/375/158 187/376/157
f 192/377/164 191/378/163 186/379/159 185/380/158
f 193/381/165 194/382/166 191/378/163 192/377/164
f 195/383/167 193/384/165 192/374/164 190/373/162
f 194/385/166 196/386/168 189/372/161 191/371/163
f 196/387/168 195/388/167 190/368/162 189/367/161
f 197/389/169 198/336/152 195/388/167 196/387/168
f 199/390/170 197/391/169 196/386/168 194/385/166
f 198/347/152 200/348/155 193/384/165 195/383/167
f 200/341/155 199/392/170 194/382/166 193/381/165
f 201/342/47 202/393/171 199/392/170 200/341/155
f 202/394/171 204/395/172 197/391/169 199/390/170
f 204/396/172 203/337/46 198/336/152 197/389/169
f 205/397/173 203/337/46 204/396/172
f 206/398/174 205/399/173 204/395/172 202/394/171
f 201/342/47 206/400/174 202/393/171
f 207/401/175 208/402/176 205/399/173 206/398/174
f 208/403/176 203/337/46 205/397/173
f 201/342/47 207/404/175 206/400/174
f 212/354/47 211/405/177 207/404/175 201/342/47
f 209/406/178 210/356/46 203/337/46 208/403/176
f 211/407/177 209/408/178 208/402/176 207/401/175
f 213/409/179 214/410/180 209/408/178 211/407/177
f 214/411/180 210/356/46 209/406/178
f 212/354/47 213/412/179 211/405/177
f 218/361/47 217/413/181 213/412/179 212/354/47
f 215/414/182 216/362/46 210/356/46 214/411/180
f 217/415/181 215/416/182 214/410/180 213/409/179
f 220/308/138 222/307/137 215/416/182 217/415/181
f 222/306/137 221/358/46 216/362/46 215/414/182
f 219/360/47 220/309/138 217/413/181 218/361/47
f 230/357/47 224/310/135 220/309/138 219/360/47
f 223/305/136 226/359/46 221/358/46 222/306/137
f 225/417/183 227/418/184 223/304/136 224/303/135
f 227/419/184 226/359/46 223/305/136
f 230/357/47 225/420/183 224/310/135
f 230/357/47 229/421/185 225/420/183
f 228/422/186 226/359/46 227/419/184
f 229/423/185 228/424/186 227/418/184 225/417/183
f 231/425/187 232/426/188 228/424/186 229/423/185
f 232/427/188 226/359/46 228/422/186
f 230/357/47 231/428/187 229/421/185
f 236/351/47 235/429/189 231/428/187 230/357/47
f 233/430/190 234/352/46 226/359/46 232/427/188
f 235/431/189 233/432/190 232/426/188 231/425/187
f 238/433/191 240/434/192 233/432/190 235/431/189
f 240/435/192 239/330/147 234/352/46 233/430/190
f 237/331/148 238/436/191 235/429/189 236/351/47
f 244/437/193 243/438/194 238/436/191 237/331/148
f 241/439/195 242/440/196 239/330/147 240/435/192
f 242/441/196 244/442/193 237/328/148 239/327/147
f 243/443/194 241/444/195 240/434/192 238/433/191
f 246/445/197 248/445/198 241/439/195 243/439/194
f 247/446/199 245/446/200 244/440/193 242/440/196
f 248/445/198 247/446/199 242/440/196 241/439/195
f 245/447/200 246/448/197 243/438/194 244/437/193
f 252/449/201 251/450/202 246/448/197 245/447/200
f 249/451/203 250/452/204 247/446/199 248/445/198
f 250/453/204 252/454/201 245/455/200 247/456/199
f 251/457/202 249/458/203 248/459/198 246/460/197
f 254/79/205 256/80/206 249/81/203 251/82/202
f 255/75/207 253/76/208 252/77/201 250/78/204
f 256/71/206 255/72/207 250/73/204 249/74/203
f 253/67/208 254/68/205 251/69/202 252/70/201
f 260/461/209 259/462/210 254/463/205 253/464/208
f 257/465/211 258/466/212 255/467/207 256/468/206
f 258/469/212 260/470/209 253/471/208 255/472/207
f 259/473/210 257/474/211 256/475/206 254/476/205
f 262/47/118 264/48/125 257/49/211 259/50/210
f 263/43/126 261/44/119 260/45/209 258/46/212
f 264/39/125 263/40/126 258/41/212 257/42/211
f 261/35/119 262/36/118 259/37/210 260/38/209
f 266/477/124 268/478/121 261/479/119 263/480/126
f 270/481/213 272/482/214 265/283/123 267/284/120
f 271/483/215 269/484/216 268/478/121 266/477/124
f 272/485/214 271/486/215 266/276/124 265/275/123
f 269/487/216 270/488/213 267/272/120 268/273/121
f 280/489/217 277/490/218 270/488/213 269/487/216
f 273/491/219 276/492/220 271/486/215 272/485/214
f 276/493/220 280/494/217 269/484/216 271/483/215
f 277/495/218 273/496/219 272/482/214 270/481/213
f 278/497/221 274/498/222 273/496/219 277/495/218
f 280/494/217 276/493/220 275/499/223 279/500/224
f 276/492/220 273/491/219 274/501/222 275/502/223
f 280/489/217 279/503/224 278/504/221 277/490/218
f 11/505/225 9/506/226 281/507/227
f 9/506/226 12/508/228 281/507/227
f 15/509/229 10/510/230 281/507/227
f 10/510/230 11/505/225 281/507/227
f 13/511/231 14/512/232 281/507/227
f 12/508/228 13/511/231 281/507/227
f 14/512/232 16/513/233 281/507/227
f 16/513/233 15/509/229 281/507/227
f 1/514/234 282/515/235 284/516/236 3/517/237
f 282/515/235 283/518/238 285/519/239 284/516/236
f 283/518/238 9/520/226 11/521/225 285/519/239
f 282/515/235 1/514/234 4/522/240 290/523/241
f 290/523/241 291/524/242 283/518/238 282/515/235
f 291/524/242 12/525/228 9/520/226 283/518/238
f 15/526/229 295/527/243 287/528/244 10/529/230
f 295/527/243 294/530/245 286/531/246 287/528/244
f 294/530/245 7/532/247 2/533/248 286/531/246
f 10/529/230 287/528/244 285/534/239 11/535/225
f 287/528/244 286/531/246 284/536/236 285/534/239
f 286/531/246 2/533/248 3/537/237 284/536/236
f 13/538/231 289/539/249 293/540/250 14/541/232
f 289/539/249 288/542/251 292/543/252 293/540/250
f 288/542/251 5/544/253 6/545/254 292/543/252
f 12/525/228 291/524/242 289/539/249 13/538/231
f 291/524/242 290/523/241 288/542/251 289/539/249
f 290/523/241 4/522/240 5/544/253 288/542/251
f 14/541/232 293/540/250 297/546/255 16/547/233
f 293/540/250 292/543/252 296/548/256 297/546/255
f 292/543/252 6/545/254 8/549/257 296/548/256
f 16/547/233 297/546/255 295/527/243 15/526/229
f 297/546/255 296/548/256 294/530/245 295/527/243
f 296/548/256 8/549/257 7/532/247 294/530/245
f 1/550/234 3/551/237 299/552/258 298/553/259
f 4/554/240 1/550/234 298/553/259 300/555/260
f 2/556/248 7/557/247 302/558/261 301/559/262
f 3/560/237 2/556/248 301/559/262 299/561/258
f 6/562/254 5/563/253 303/564/263 304/565/264
f 5/563/253 4/554/240 300/555/260 303/564/263
f 8/566/257 6/562/254 304/565/264 305/567/265
f 7/557/247 8/566/257 305/567/265 302/558/261
f 306/568/266 307/569/267 315/570/268 314/571/269
f 308/572/270 306/568/266 314/571/269 316/573/271
f 310/574/272 309/575/273 317/576/274 318/577/275
f 307/578/267 310/574/272 318/577/275 315/579/268
f 311/580/276 312/581/277 320/582/278 319/583/279
f 312/581/277 308/572/270 316/573/271 320/582/278
f 313/584/280 311/580/276 319/583/279 321/585/281
f 309/575/273 313/584/280 321/585/281 317/576/274
f 299/586/258 322/587/282 324/588/283 298/589/259
f 322/587/282 323/590/284 325/591/285 324/588/283
f 323/590/284 307/592/267 306/593/266 325/591/285
f 298/589/259 324/588/283 326/594/286 300/595/260
f 324/588/283 325/591/285 327/596/287 326/594/286
f 325/591/285 306/593/266 308/597/270 327/596/287
f 302/598/261 328/599/288 330/600/289 301/601/262
f 328/599/288 329/602/290 331/603/291 330/600/289
f 329/602/290 309/604/273 310/605/272 331/603/291
f 301/601/262 330/600/289 322/606/282 299/607/258
f 330/600/289 331/603/291 323/608/284 322/606/282
f 331/603/291 310/605/272 307/609/267 323/608/284
f 303/610/263 332/611/292 334/612/293 304/613/264
f 332/611/292 333/614/294 335/615/295 334/612/293
f 333/614/294 312/616/277 311/617/276 335/615/295
f 300/595/260 326/594/286 332/611/292 303/610/263
f 326/594/286 327/596/287 333/614/294 332/611/292
f 327/596/287 308/597/270 312/616/277 333/614/294
f 304/613/264 334/612/293 336/618/296 305/619/265
f 334/612/293 335/615/295 337/620/297 336/618/296
f 335/615/295 311/617/276 313/621/280 337/620/297
f 305/619/265 336/618/296 328/599/288 302/598/261
f 336/618/296 337/620/297 329/602/290 328/599/288
f 337/620/297 313/621/280 309/604/273 329/602/290
f 315/622/268 347/623/298 349/624/299 314/625/269
f 347/623/298 346/626/300 348/627/301 349/624/299
f 346/626/300 339/628/302 338/629/303 348/627/301
f 314/625/269 349/624/299 351/630/304 316/631/271
f 349/624/299 348/627/301 350/632/305 351/630/304
f 348/627/301 338/629/303 340/633/306 350/632/305
f 317/634/274 353/635/307 355/636/308 318/637/275
f 353/635/307 352/638/309 354/639/310 355/636/308
f 352/638/309 341/640/311 342/641/312 354/639/310
f 318/637/275 355/636/308 347/642/298 315/643/268
f 355/636/308 354/639/310 346/644/300 347/642/298
f 354/639/310 342/641/312 339/645/302 346/644/300
f 320/646/278 357/647/313 359/648/314 319/649/279
f 357/647/313 356/650/315 358/651/316 359/648/314
f 356/650/315 344/652/317 343/653/318 358/651/316
f 316/631/271 351/630/304 357/647/313 320/646/278
f 351/630/304 350/632/305 356/650/315 357/647/313
f 350/632/305 340/633/306 344/652/317 356/650/315
f 319/649/279 359/648/314 361/654/319 321/655/281
f 359/648/314 358/651/316 360/656/320 361/654/319
f 358/651/316 343/653/318 345/657/321 360/656/320
f 321/655/281 361/654/319 353/635/307 317/634/274
f 361/654/319 360/656/320 352/638/309 353/635/307
f 360/656/320 345/657/321 341/640/311 352/638/309
f 338/658/303 339/659/302 363/660/322 362/661/323
f 340/662/306 338/658/303 362/661/323 364/663/324
f 342/664/312 341/665/311 365/666/325 366/667/326
f 339/668/302 342/664/312 366/667/326 363/669/322
f 343/670/318 344/671/317 367/672/327 368/673/328
f 344/671/317 340/662/306 364/663/324 367/672/327
f 345/674/321 343/670/318 368/673/328 369/675/329
f 341/665/311 345/674/321 369/675/329 365/666/325
f 371/676/330 370/677/331 378/678/332 379/679/333
f 372/680/334 371/676/330 379/679/333 380/681/335
f 374/682/336 373/683/337 382/684/338 381/685/339
f 370/686/331 374/682/336 381/685/339 378/687/332
f 375/688/340 376/689/341 384/690/342 383/691/343
f 376/689/341 372/680/334 380/681/335 384/690/342
f 377/692/344 375/688/340 383/691/343 385/693/345
f 373/683/337 377/692/344 385/693/345 382/684/338
f 379/694/333 378/695/332 386/696/346 387/697/347
f 380/698/335 379/694/333 387/697/347 388/699/348
f 381/700/339 382/701/338 390/702/349 389/703/350
f 378/704/332 381/700/339 389/703/350 386/705/346
f 383/706/343 384/707/342 392/708/351 391/709/352
f 384/707/342 380/698/335 388/699/348 392/708/351
f 385/710/345 383/706/343 391/709/352 393/711/353
f 382/701/338 385/710/345 393/711/353 390/702/349
f 386/696/346 403/712/354 404/713/355 387/697/347
f 402/714/346 395/715/356 394/716/357 405/717/358
f 387/697/347 404/713/355 406/718/359 388/699/348
f 405/717/358 394/716/357 396/719/360 407/720/348
f 390/702/349 409/721/361 410/722/362 389/703/350
f 408/723/349 397/724/363 398/725/364 411/726/365
f 389/703/350 410/722/362 403/727/354 386/705/346
f 411/726/365 398/725/364 395/728/356 402/729/346
f 392/708/351 413/730/366 415/731/367 391/709/352
f 412/732/368 400/733/369 399/734/370 414/735/352
f 388/699/348 406/718/359 413/730/366 392/708/351
f 407/720/348 396/719/360 400/733/369 412/732/368
f 391/709/352 415/731/367 417/736/371 393/711/353
f 414/735/352 399/734/370 401/737/372 416/738/353
f 393/711/353 417/736/371 409/721/361 390/702/349
f 416/738/353 401/737/372 397/724/363 408/723/349
f 416/738/353 408/723/349 427/739/373 419/740/374
f 409/721/361 417/736/371 418/741/375 426/742/376
f 414/735/352 416/738/353 419/740/374 421/743/377
f 417/736/371 415/731/367 420/744/378 418/741/375
f 407/720/348 412/732/368 423/745/379 428/746/380
f 413/730/366 406/718/359 429/747/381 422/748/382
f 412/732/368 414/735/352 421/743/377 423/745/379
f 415/731/367 413/730/366 422/748/382 420/744/378
f 411/726/365 402/729/346 433/749/383 424/750/384
f 403/727/354 410/722/362 425/751/385 432/752/386
f 408/723/349 411/726/365 424/750/384 427/739/373
f 410/722/362 409/721/361 426/742/376 425/751/385
f 405/717/358 407/720/348 428/746/380 430/753/387
f 406/718/359 404/713/355 431/754/388 429/747/381
f 402/714/346 405/717/358 430/753/387 433/755/383
f 404/713/355 403/712/354 432/756/386 431/754/388
f 432/756/386 433/755/383 430/753/387 431/754/388
f 431/754/388 430/753/387 428/746/380 429/747/381
f 426/742/376 427/739/373 424/750/384 425/751/385
f 425/751/385 424/750/384 433/749/383 432/752/386
f 422/748/382 423/745/379 421/743/377 420/744/378
f 429/747/381 428/746/380 423/745/379 422/748/382
f 420/744/378 421/743/377 419/740/374 418/741/375
f 418/741/375 419/740/374 427/739/373 426/742/376
f 394/757/357 395/758/356 434/759/389
f 396/760/360 394/757/357 434/759/389
f 398/761/364 397/762/363 434/759/389
f 395/758/356 398/761/364 434/759/389
f 399/763/370 400/764/369 434/759/389
f 400/764/369 396/760/360 434/759/389
f 401/765/372 399/763/370 434/759/389
f 397/762/363 401/765/372 434/759/389
f 377/766/344 373/767/337 439/768/390 435/769/391
f 375/770/340 377/766/344 435/769/391 437/771/392
f 372/772/334 376/773/341 436/774/393 440/775/394
f 376/773/341 375/770/340 437/771/392 436/774/393
f 374/776/336 370/777/331 442/778/395 438/779/396
f 373/767/337 374/776/336 438/779/396 439/768/390
f 371/780/330 372/772/334 440/775/394 441/781/397
f 370/782/331 371/780/330 441/781/397 442/783/395
f 365/784/325 369/785/329 443/786/398 447/787/399
f 369/785/329 368/788/328 444/789/400 443/786/398
f 367/790/327 364/791/324 448/792/401 445/793/402
f 368/788/328 367/790/327 445/793/402 444/789/400
f 363/794/322 366/795/326 446/796/403 449/797/404
f 366/795/326 365/784/325 447/787/399 446/796/403
f 364/791/324 362/798/323 450/799/405 448/792/401
f 362/798/323 363/800/322 449/801/404 450/799/405
f 450/799/405 449/801/404 442/783/395 441/781/397
f 448/792/401 450/799/405 441/781/397 440/775/394
f 446/796/403 447/787/399 439/768/390 438/779/396
f 449/797/404 446/796/403 438/779/396 442/778/395
f 444/789/400 445/793/402 436/774/393 437/771/392
f 445/793/402 448/792/401 440/775/394 436/774/393
f 443/786/398 444/789/400 437/771/392 435/769/391
f 447/787/399 443/786/398 435/769/391 439/768/390
f 453/802/406 456/803/407 455/804/408 454/805/409
f 451/806/410 453/802/406 454/805/409 452/807/411
f 453/802/406 451/806/410 459/808/412 458/809/413
f 456/803/407 453/802/406 458/809/413 457/810/414
f 457/810/414 458/809/413 461/811/415 462/812/416
f 458/809/413 459/808/412 460/813/417 461/811/415
f 461/811/415 460/813/417 463/814/227
f 462/812/416 461/811/415 463/814/227
f 467/815/418 452/807/411 454/805/409
f 467/815/418 465/816/419 452/807/411
f 466/817/420 454/805/409 455/804/408
f 464/818/421 466/817/420 455/804/408
f 454/805/409 466/817/420 467/815/418
f 466/817/420 464/818/421 468/819/422 469/820/423
f 467/815/418 466/817/420 469/820/423 470/821/424
f 465/816/419 467/815/418 470/821/424 471/822/425
f 469/820/423 468/819/422 472/823/426 473/824/427
f 470/821/424 469/820/423 473/824/427 474/825/428
f 471/822/425 470/821/424 474/825/428 475/826/429
f 473/824/427 472/823/426 476/827/430 477/828/431
f 474/825/428 473/824/427 477/828/431 478/829/432
f 475/826/429 474/825/428 478/829/432 479/830/433
f 477/828/431 476/827/430 480/831/434 481/832/435
f 478/829/432 477/828/431 481/832/435 482/833/436
f 479/830/433 478/829/432 482/833/436 483/834/437
f 481/832/435 480/831/434 484/835/438 485/836/439
f 482/833/436 481/832/435 485/836/439 486/837/440
f 483/834/437 482/833/436 486/837/440 487/838/441
f 485/836/439 484/835/438 488/839/442 489/840/443
f 486/837/440 485/836/439 489/840/443 490/841/444
f 487/838/441 486/837/440 490/841/444 491/842/445
f 489/840/443 488/839/442 492/843/446 493/844/447
f 490/841/444 489/840/443 493/844/447 494/845/448
f 491/842/445 490/841/444 494/845/448 495/846/449
f 493/844/447 492/843/446 496/847/450 497/848/451
f 495/846/449 494/845/448 498/849/452 499/850/453
f 497/848/451 496/847/450 500/851/454 501/852/455
f 499/850/453 498/849/452 502/853/456 503/854/457
f 501/852/455 500/851/454 504/855/458 505/856/459
f 503/854/457 502/853/456 506/857/460 507/858/461
f 505/856/459 504/855/458 508/859/462 509/860/463
f 507/858/461 506/857/460 510/861/464 511/862/465
f 509/860/463 508/859/462 512/863/466 513/864/467
f 511/862/465 510/861/464 514/865/468 515/866/469
f 519/867/470 513/864/467 512/863/466
f 516/868/471 519/867/470 512/863/466
f 519/867/470 517/869/472 513/864/467
f 520/870/473 515/866/469 514/865/468
f 517/869/472 520/870/473 514/865/468
f 520/870/473 518/871/474 515/866/469
f 517/869/472 519/867/470 522/872/475 521/873/476
f 519/867/470 516/868/471 523/874/477 522/872/475
f 518/871/474 520/870/473 525/875/478 524/876/479
f 520/870/473 517/869/472 521/873/476 525/875/478
f 526/877/480 494/845/448 493/844/447
f 497/848/451 526/877/480 493/844/447
f 526/877/480 498/849/452 494/845/448
f 498/849/452 526/877/480 527/878/481 502/853/456
f 526/877/480 497/848/451 501/852/455 527/878/481
f 502/853/456 527/878/481 528/879/482 506/857/460
f 527/878/481 501/852/455 505/856/459 528/879/482
f 506/857/460 528/879/482 529/880/483 510/861/464
f 528/879/482 505/856/459 509/860/463 529/880/483
f 510/861/464 529/880/483 530/881/484 514/865/468
f 529/880/483 509/860/463 513/864/467 530/881/484
f 514/865/468 530/881/484 517/869/472
f 530/881/484 513/864/467 517/869/472
f 521/873/476 522/872/475 531/882/485 532/883/47
f 522/872/475 523/874/477 533/884/486 531/882/485
f 524/876/479 525/875/478 535/885/487 534/886/488
f 525/875/478 521/873/476 532/883/47 535/885/487
f 536/802/489 537/805/490 455/804/408 456/803/407
f 451/806/410 452/807/411 537/805/490 536/802/489
f 536/802/489 538/809/491 459/808/412 451/806/410
f 456/803/407 457/810/414 538/809/491 536/802/489
f 457/810/414 462/812/416 539/811/492 538/809/491
f 538/809/491 539/811/492 460/813/417 459/808/412
f 539/811/492 463/814/227 460/813/417
f 462/812/416 463/814/227 539/811/492
f 541/815/493 537/805/490 452/807/411
f 541/815/493 452/807/411 465/816/419
f 540/817/494 455/804/408 537/805/490
f 464/818/421 455/804/408 540/817/494
f 537/805/490 541/815/493 540/817/494
f 540/817/494 542/820/495 468/819/422 464/818/421
f 541/815/493 543/821/496 542/820/495 540/817/494
f 465/816/419 471/822/425 543/821/496 541/815/493
f 542/820/495 544/824/497 472/823/426 468/819/422
f 543/821/496 545/825/498 544/824/497 542/820/495
f 471/822/425 475/826/429 545/825/498 543/821/496
f 544/824/497 546/828/499 476/827/430 472/823/426
f 545/825/498 547/829/500 546/828/499 544/824/497
f 475/826/429 479/830/433 547/829/500 545/825/498
f 546/828/499 548/832/501 480/831/434 476/827/430
f 547/829/500 549/833/502 548/832/501 546/828/499
f 479/830/433 483/834/437 549/833/502 547/829/500
f 548/832/501 550/836/503 484/835/438 480/831/434
f 549/833/502 551/837/504 550/836/503 548/832/501
f 483/834/437 487/838/441 551/837/504 549/833/502
f 550/836/503 552/840/505 488/839/442 484/835/438
f 551/837/504 553/841/506 552/840/505 550/836/503
f 487/838/441 491/842/445 553/841/506 551/837/504
f 552/840/505 554/844/507 492/843/446 488/839/442
f 553/841/506 555/845/508 554/844/507 552/840/505
f 491/842/445 495/846/449 555/845/508 553/841/506
f 554/844/507 556/848/509 496/847/450 492/843/446
f 495/846/449 499/850/453 557/849/510 555/845/508
f 556/848/509 558/852/511 500/851/454 496/847/450
f 499/850/453 503/854/457 559/853/512 557/849/510
f 558/852/511 560/856/513 504/855/458 500/851/454
f 503/854/457 507/858/461 561/857/514 559/853/512
f 560/856/513 562/860/515 508/859/462 504/855/458
f 507/858/461 511/862/465 563/861/516 561/857/514
f 562/860/515 564/864/517 512/863/466 508/859/462
f 511/862/465 515/866/469 565/865/518 563/861/516
f 567/867/519 512/863/466 564/864/517
f 516/868/471 512/863/466 567/867/519
f 567/867/519 564/864/517 566/869/520
f 568/870/521 565/865/518 515/866/469
f 566/869/520 565/865/518 568/870/521
f 568/870/521 515/866/469 518/871/474
f 566/869/520 569/873/522 570/872/523 567/867/519
f 567/867/519 570/872/523 523/874/477 516/868/471
f 518/871/474 524/876/479 571/875/524 568/870/521
f 568/870/521 571/875/524 569/873/522 566/869/520
f 572/877/525 554/844/507 555/845/508
f 556/848/509 554/844/507 572/877/525
f 572/877/525 555/845/508 557/849/510
f 557/849/510 559/853/512 573/878/526 572/877/525
f 572/877/525 573/878/526 558/852/511 556/848/509
f 559/853/512 561/857/514 574/879/527 573/878/526
f 573/878/526 574/879/527 560/856/513 558/852/511
f 561/857/514 563/861/516 575/880/528 574/879/527
f 574/879/527 575/880/528 562/860/515 560/856/513
f 563/861/516 565/865/518 576/881/529 575/880/528
f 575/880/528 576/881/529 564/864/517 562/860/515
f 565/865/518 566/869/520 576/881/529
f 576/881/529 566/869/520 564/864/517
f 569/873/522 578/883/46 577/882/530 570/872/523
f 570/872/523 577/882/530 533/884/486 523/874/477
f 524/876/479 534/886/488 579/885/531 571/875/524
f 571/875/524 579/885/531 578/883/46 569/873/522
